<svg width="1943" height="1951" viewBox="0 0 1943 1951" fill="none" xmlns="http://www.w3.org/2000/svg">
<path d="M429.333 415.5C429.333 447.901 455.599 474.167 488 474.167C520.401 474.167 546.667 447.901 546.667 415.5C546.667 383.099 520.401 356.833 488 356.833C455.599 356.833 429.333 383.099 429.333 415.5ZM620.5 484L617.759 473.347L620.5 484ZM814.5 227.5L813.498 238.455L814.5 227.5ZM1031 1627L1041.92 1625.66L1031 1627ZM1097.5 1722.5L1097.5 1711.5L1097.5 1722.5ZM1231.5 1462L1223.9 1454.05L1231.5 1462ZM1335 1437.5L1337.85 1426.88L1335 1437.5ZM1396.33 1573.5C1396.33 1605.9 1422.6 1632.17 1455 1632.17C1487.4 1632.17 1513.67 1605.9 1513.67 1573.5C1513.67 1541.1 1487.4 1514.83 1455 1514.83C1422.6 1514.83 1396.33 1541.1 1396.33 1573.5ZM488.53 439.3C491.524 444.586 498.236 446.444 503.523 443.45C508.809 440.456 510.667 433.743 507.672 428.457L488.53 439.3ZM530.042 460.362C525.785 456.027 518.821 455.964 514.487 460.221C510.152 464.478 510.09 471.443 514.346 475.777L530.042 460.362ZM555.935 498.97C561.873 500.253 567.727 496.48 569.01 490.542C570.293 484.604 566.52 478.75 560.582 477.467L555.935 498.97ZM598.236 477.453C592.234 478.398 588.135 484.028 589.079 490.03C590.024 496.031 595.654 500.13 601.656 499.186L598.236 477.453ZM646.225 485.376C651.519 482.396 653.396 475.688 650.416 470.394C647.436 465.1 640.729 463.224 635.434 466.204L646.225 485.376ZM664.754 439.975C661.024 444.77 661.886 451.681 666.681 455.412C671.476 459.143 678.387 458.28 682.118 453.485L664.754 439.975ZM705.83 413.592C708.365 408.072 705.944 401.541 700.423 399.006C694.903 396.471 688.372 398.891 685.837 404.412L705.83 413.592ZM700.446 364.695C698.747 370.528 702.099 376.633 707.931 378.332C713.764 380.03 719.87 376.679 721.568 370.846L700.446 364.695ZM731.621 327.356C732.815 321.399 728.954 315.602 722.997 314.409C717.04 313.215 711.244 317.076 710.05 323.033L731.621 327.356ZM721.588 279.339C719.483 285.037 722.396 291.364 728.094 293.469C733.793 295.575 740.119 292.662 742.225 286.963L721.588 279.339ZM761.939 254.047C766.27 249.787 766.327 242.822 762.066 238.491C757.806 234.161 750.841 234.104 746.51 238.364L761.939 254.047ZM791.33 216.877C785.307 217.674 781.072 223.203 781.869 229.226C782.667 235.248 788.195 239.484 794.218 238.687L791.33 216.877ZM831.106 241.71C836.934 243.426 843.05 240.094 844.766 234.266C846.483 228.439 843.15 222.323 837.323 220.606L831.106 241.71ZM876.149 244.584C872.084 240.069 865.129 239.704 860.614 243.769C856.099 247.833 855.734 254.789 859.799 259.304L876.149 244.584ZM876.174 290.265C877.928 296.082 884.064 299.376 889.881 297.623C895.697 295.87 898.992 289.734 897.239 283.917L876.174 290.265ZM904.865 325.359C904.218 319.319 898.796 314.947 892.756 315.594C886.715 316.242 882.343 321.664 882.991 327.704L904.865 325.359ZM887.905 373.697C888.552 379.738 893.974 384.109 900.015 383.461C906.055 382.813 910.427 377.392 909.779 371.351L887.905 373.697ZM915.464 424.731C914.823 418.69 909.407 414.312 903.365 414.953C897.324 415.593 892.946 421.01 893.587 427.052L915.464 424.731ZM899.287 480.893C899.926 486.935 905.341 491.315 911.383 490.676C917.424 490.037 921.804 484.622 921.165 478.581L899.287 480.893ZM926.768 531.631C926.13 525.59 920.716 521.209 914.674 521.846C908.633 522.484 904.252 527.898 904.89 533.94L926.768 531.631ZM910.52 587.331C911.157 593.372 916.571 597.754 922.613 597.117C928.654 596.48 933.036 591.066 932.399 585.024L910.52 587.331ZM938.029 638.465C937.393 632.424 931.98 628.042 925.938 628.678C919.896 629.314 915.514 634.728 916.151 640.77L938.029 638.465ZM921.775 694.188C922.411 700.229 927.824 704.612 933.866 703.976C939.908 703.34 944.29 697.926 943.654 691.885L921.775 694.188ZM949.273 745.283C948.638 739.241 943.225 734.859 937.183 735.495C931.141 736.13 926.758 741.543 927.394 747.585L949.273 745.283ZM933.011 800.977C933.646 807.019 939.059 811.402 945.101 810.766C951.143 810.131 955.525 804.718 954.89 798.676L933.011 800.977ZM960.505 852.074C959.87 846.033 954.457 841.65 948.415 842.285C942.374 842.92 937.991 848.333 938.626 854.375L960.505 852.074ZM944.241 907.781C944.876 913.823 950.289 918.206 956.33 917.571C962.372 916.936 966.755 911.523 966.12 905.481L944.241 907.781ZM971.734 958.891C971.099 952.849 965.687 948.466 959.645 949.101C953.603 949.736 949.22 955.149 949.855 961.191L971.734 958.891ZM955.468 1014.6C956.103 1020.64 961.515 1025.02 967.557 1024.39C973.599 1023.75 977.982 1018.34 977.347 1012.3L955.468 1014.6ZM982.958 1065.68C982.323 1059.64 976.91 1055.26 970.868 1055.89C964.826 1056.53 960.443 1061.94 961.078 1067.98L982.958 1065.68ZM966.686 1121.35C967.321 1127.39 972.733 1131.77 978.775 1131.14C984.817 1130.5 989.2 1125.09 988.565 1119.05L966.686 1121.35ZM994.171 1172.39C993.536 1166.35 988.123 1161.97 982.082 1162.6C976.04 1163.24 971.656 1168.65 972.291 1174.69L994.171 1172.39ZM977.896 1228.03C978.531 1234.07 983.943 1238.45 989.985 1237.82C996.027 1237.18 1000.41 1231.77 999.775 1225.73L977.896 1228.03ZM1005.38 1279.08C1004.75 1273.04 999.334 1268.66 993.293 1269.29C987.251 1269.93 982.868 1275.34 983.503 1281.38L1005.38 1279.08ZM989.116 1334.79C989.751 1340.83 995.164 1345.21 1001.21 1344.58C1007.25 1343.94 1011.63 1338.53 1011 1332.49L989.116 1334.79ZM1016.62 1385.98C1015.98 1379.94 1010.57 1375.56 1004.53 1376.19C998.487 1376.83 994.104 1382.24 994.74 1388.28L1016.62 1385.98ZM1000.37 1441.85C1001.01 1447.89 1006.42 1452.27 1012.46 1451.63C1018.51 1451 1022.89 1445.59 1022.25 1439.54L1000.37 1441.85ZM1027.87 1492.94C1027.23 1486.9 1021.82 1482.51 1015.78 1483.15C1009.74 1483.79 1005.36 1489.2 1005.99 1495.24L1027.87 1492.94ZM1011.61 1548.59C1012.25 1554.64 1017.66 1559.02 1023.71 1558.38C1029.75 1557.74 1034.13 1552.33 1033.49 1546.29L1011.61 1548.59ZM1039.16 1599.9C1038.52 1593.86 1033.1 1589.48 1027.06 1590.13C1021.02 1590.77 1016.64 1596.18 1017.28 1602.22L1039.16 1599.9ZM1025.34 1661.5C1026.57 1667.45 1032.39 1671.28 1038.34 1670.05C1044.28 1668.82 1048.11 1663.01 1046.88 1657.06L1025.34 1661.5ZM1071.7 1705.77C1066.48 1702.66 1059.73 1704.36 1056.62 1709.58C1053.5 1714.8 1055.21 1721.55 1060.42 1724.66L1071.7 1705.77ZM1133.62 1721.19C1138.32 1717.34 1139.01 1710.41 1135.16 1705.71C1131.31 1701.01 1124.38 1700.32 1119.68 1704.17L1133.62 1721.19ZM1143.96 1654.67C1142.39 1660.54 1145.87 1666.57 1151.74 1668.14C1157.61 1669.71 1163.64 1666.22 1165.21 1660.36L1143.96 1654.67ZM1178.19 1608.06C1179.8 1602.2 1176.35 1596.15 1170.5 1594.54C1164.64 1592.93 1158.58 1596.38 1156.98 1602.24L1178.19 1608.06ZM1170.43 1558.43C1168.47 1564.18 1171.55 1570.43 1177.3 1572.39C1183.05 1574.35 1189.3 1571.27 1191.26 1565.52L1170.43 1558.43ZM1207.02 1524.13C1209.42 1518.55 1206.84 1512.08 1201.26 1509.68C1195.68 1507.28 1189.21 1509.86 1186.81 1515.44L1207.02 1524.13ZM1208.27 1473.71C1204.99 1478.82 1206.47 1485.63 1211.58 1488.91C1216.69 1492.2 1223.49 1490.72 1226.78 1485.61L1208.27 1473.71ZM1259.46 1453C1264.49 1449.59 1265.81 1442.76 1262.41 1437.72C1259.01 1432.69 1252.17 1431.37 1247.14 1434.77L1259.46 1453ZM1308.62 1420.81C1302.59 1420.05 1297.09 1424.32 1296.33 1430.35C1295.57 1436.37 1299.84 1441.87 1305.87 1442.63L1308.62 1420.81ZM1351.64 1455.69C1357.03 1458.5 1363.67 1456.41 1366.48 1451.02C1369.29 1445.63 1367.2 1438.99 1361.81 1436.18L1351.64 1455.69ZM1401.19 1467.49C1397.1 1463 1390.15 1462.66 1385.65 1466.75C1381.15 1470.84 1380.82 1477.79 1384.9 1482.29L1401.19 1467.49ZM1411.6 1518.2C1414.85 1523.33 1421.65 1524.85 1426.78 1521.6C1431.91 1518.35 1433.43 1511.55 1430.18 1506.42L1411.6 1518.2ZM1453.91 1547.6C1451.05 1542.24 1444.39 1540.22 1439.03 1543.08C1433.67 1545.94 1431.64 1552.6 1434.51 1557.96L1453.91 1547.6ZM478.339 420.761C481.749 427.022 485.132 433.302 488.53 439.3L507.672 428.457C504.393 422.667 501.139 416.628 497.661 410.239L478.339 420.761ZM514.346 475.777C525.24 486.869 538.519 495.207 555.935 498.97L560.582 477.467C547.884 474.723 538.322 468.792 530.042 460.362L514.346 475.777ZM601.656 499.186C608.442 498.118 615.624 496.613 623.241 494.653L617.759 473.347C610.737 475.154 604.247 476.507 598.236 477.453L601.656 499.186ZM623.241 494.653C631.483 492.533 639.138 489.365 646.225 485.376L635.434 466.204C629.922 469.306 624.045 471.73 617.759 473.347L623.241 494.653ZM682.118 453.485C691.713 441.153 699.512 427.351 705.83 413.592L685.837 404.412C680.027 417.064 673.053 429.31 664.754 439.975L682.118 453.485ZM721.568 370.846C723.886 362.886 725.751 355.46 727.229 348.927L705.771 344.074C704.379 350.226 702.624 357.215 700.446 364.695L721.568 370.846ZM727.229 348.927C728.693 342.454 730.109 334.903 731.621 327.356L710.05 323.033C708.454 330.996 707.156 337.952 705.771 344.074L727.229 348.927ZM742.225 286.963C747.032 273.953 753.319 262.527 761.939 254.047L746.51 238.364C734.744 249.94 727.021 264.634 721.588 279.339L742.225 286.963ZM794.218 238.687C799.908 237.933 806.301 237.796 813.498 238.455L815.502 216.546C806.852 215.755 798.809 215.887 791.33 216.877L794.218 238.687ZM813.498 238.455C820.075 239.056 825.914 240.18 831.106 241.71L837.323 220.606C830.639 218.638 823.38 217.267 815.502 216.546L813.498 238.455ZM859.799 259.304C867.485 267.841 872.632 278.512 876.174 290.265L897.239 283.917C893.096 270.171 886.666 256.265 876.149 244.584L859.799 259.304ZM882.991 327.704C883.731 334.608 884.37 341.908 885.078 347.811L906.922 345.19C906.218 339.329 905.689 333.048 904.865 325.359L882.991 327.704ZM885.078 347.811C885.394 350.444 886.364 359.333 887.905 373.697L909.779 371.351C908.247 357.069 907.259 347.998 906.922 345.19L885.078 347.811ZM893.587 427.052C895.281 443.022 897.191 461.065 899.287 480.893L921.165 478.581C919.069 458.751 917.159 440.705 915.464 424.731L893.587 427.052ZM904.89 533.94C906.68 550.906 908.561 568.744 910.52 587.331L932.399 585.024C930.44 566.437 928.559 548.599 926.768 531.631L904.89 533.94ZM916.151 640.77C917.978 658.117 919.855 675.95 921.775 694.188L943.654 691.885C941.734 673.647 939.857 655.813 938.029 638.465L916.151 640.77ZM927.394 747.585C929.239 765.124 931.114 782.942 933.011 800.977L954.89 798.676C952.993 780.641 951.119 762.822 949.273 745.283L927.394 747.585ZM938.626 854.375C940.485 872.055 942.358 889.876 944.241 907.781L966.12 905.481C964.238 887.575 962.364 869.754 960.505 852.074L938.626 854.375ZM949.855 961.191C951.725 978.983 953.598 996.803 955.468 1014.6L977.347 1012.3C975.477 994.504 973.604 976.684 971.734 958.891L949.855 961.191ZM961.078 1067.98C962.958 1085.88 964.83 1103.68 966.686 1121.35L988.565 1119.05C986.709 1101.38 984.838 1083.58 982.958 1065.68L961.078 1067.98ZM972.291 1174.69C974.184 1192.71 976.055 1210.51 977.896 1228.03L999.775 1225.73C997.934 1208.21 996.064 1190.41 994.171 1172.39L972.291 1174.69ZM983.503 1281.38C985.419 1299.61 987.293 1317.44 989.116 1334.79L1011 1332.49C1009.17 1315.14 1007.3 1297.32 1005.38 1279.08L983.503 1281.38ZM994.74 1388.28C996.701 1406.93 998.583 1424.83 1000.37 1441.85L1022.25 1439.54C1020.46 1422.53 1018.58 1404.63 1016.62 1385.98L994.74 1388.28ZM1005.99 1495.24C1008.06 1514.89 1009.94 1532.77 1011.61 1548.59L1033.49 1546.29C1031.82 1530.46 1029.94 1512.58 1027.87 1492.94L1005.99 1495.24ZM1017.28 1602.22C1018.92 1617.74 1019.91 1626.95 1020.08 1628.35L1041.92 1625.66C1041.78 1624.5 1040.82 1615.6 1039.16 1599.9L1017.28 1602.22ZM1020.08 1628.35C1021.59 1640.55 1023.29 1651.6 1025.34 1661.5L1046.88 1657.06C1045 1647.91 1043.38 1637.49 1041.92 1625.66L1020.08 1628.35ZM1060.42 1724.66C1071.01 1730.98 1083.44 1733.5 1097.5 1733.5L1097.5 1711.5C1085.98 1711.5 1077.83 1709.43 1071.7 1705.77L1060.42 1724.66ZM1097.5 1733.5C1111.98 1733.5 1123.94 1729.12 1133.62 1721.19L1119.68 1704.17C1114.15 1708.71 1107.18 1711.5 1097.5 1711.5L1097.5 1733.5ZM1165.21 1660.36C1167.88 1650.37 1170.29 1639.84 1172.71 1629.51L1151.29 1624.49C1148.82 1635.01 1146.51 1645.11 1143.96 1654.67L1165.21 1660.36ZM1172.71 1629.51C1174.24 1623.01 1176.08 1615.77 1178.19 1608.06L1156.98 1602.24C1154.8 1610.19 1152.89 1617.69 1151.29 1624.49L1172.71 1629.51ZM1191.26 1565.52C1196.05 1551.43 1201.37 1537.28 1207.02 1524.13L1186.81 1515.44C1180.89 1529.22 1175.37 1543.92 1170.43 1558.43L1191.26 1565.52ZM1226.78 1485.61C1231.1 1478.89 1235.24 1473.64 1239.1 1469.95L1223.9 1454.05C1218.35 1459.35 1213.14 1466.14 1208.27 1473.71L1226.78 1485.61ZM1239.1 1469.95C1246.63 1462.75 1253.25 1457.2 1259.46 1453L1247.14 1434.77C1239.53 1439.92 1231.94 1446.37 1223.9 1454.05L1239.1 1469.95ZM1305.87 1442.63C1313.46 1443.59 1322.05 1445.42 1332.15 1448.13L1337.85 1426.88C1327.19 1424.02 1317.55 1421.93 1308.62 1420.81L1305.87 1442.63ZM1332.15 1448.13C1339.03 1449.97 1345.48 1452.48 1351.64 1455.69L1361.81 1436.18C1354.21 1432.22 1346.26 1429.13 1337.85 1426.88L1332.15 1448.13ZM1384.9 1482.29C1393.82 1492.1 1402.59 1504 1411.6 1518.2L1430.18 1506.42C1420.71 1491.5 1411.2 1478.51 1401.19 1467.49L1384.9 1482.29ZM1434.51 1557.96C1438 1564.5 1441.56 1571.34 1445.2 1578.49L1464.8 1568.51C1461.11 1561.26 1457.48 1554.29 1453.91 1547.6L1434.51 1557.96Z" fill="white"/>
<path d="M803.44 1356.36H803.08L781.36 1385.52H803.44V1356.36ZM803.44 1399.56H767.92V1383.96L804.4 1335H819.64V1385.52H830.8V1399.56H819.64V1419H803.44V1399.56ZM860.04 1368.96C861.88 1369.12 863.84 1369.12 865.92 1368.96C868 1368.8 869.92 1368.36 871.68 1367.64C873.52 1366.84 875 1365.72 876.12 1364.28C877.32 1362.84 877.92 1360.92 877.92 1358.52C877.92 1354.92 876.72 1352.16 874.32 1350.24C871.92 1348.32 869.16 1347.36 866.04 1347.36C861.72 1347.36 858.44 1348.8 856.2 1351.68C854.04 1354.48 853 1358.04 853.08 1362.36H836.88C837.04 1358.04 837.8 1354.12 839.16 1350.6C840.6 1347 842.56 1343.92 845.04 1341.36C847.6 1338.8 850.64 1336.84 854.16 1335.48C857.68 1334.04 861.6 1333.32 865.92 1333.32C869.28 1333.32 872.64 1333.84 876 1334.88C879.36 1335.84 882.36 1337.32 885 1339.32C887.72 1341.32 889.92 1343.76 891.6 1346.64C893.28 1349.52 894.12 1352.84 894.12 1356.6C894.12 1360.68 893.12 1364.28 891.12 1367.4C889.2 1370.52 886.28 1372.64 882.36 1373.76V1374C887 1375.04 890.64 1377.28 893.28 1380.72C895.92 1384.16 897.24 1388.28 897.24 1393.08C897.24 1397.48 896.36 1401.4 894.6 1404.84C892.92 1408.28 890.64 1411.16 887.76 1413.48C884.88 1415.8 881.56 1417.56 877.8 1418.76C874.04 1419.96 870.12 1420.56 866.04 1420.56C861.32 1420.56 857 1419.88 853.08 1418.52C849.24 1417.16 845.96 1415.2 843.24 1412.64C840.52 1410 838.4 1406.8 836.88 1403.04C835.44 1399.28 834.76 1394.96 834.84 1390.08H851.04C851.12 1392.32 851.48 1394.48 852.12 1396.56C852.76 1398.56 853.68 1400.32 854.88 1401.84C856.08 1403.28 857.56 1404.44 859.32 1405.32C861.16 1406.2 863.32 1406.64 865.8 1406.64C869.64 1406.64 872.88 1405.48 875.52 1403.16C878.16 1400.76 879.48 1397.52 879.48 1393.44C879.48 1390.24 878.84 1387.8 877.56 1386.12C876.36 1384.44 874.8 1383.24 872.88 1382.52C870.96 1381.72 868.84 1381.28 866.52 1381.2C864.28 1381.04 862.12 1380.96 860.04 1380.96V1368.96Z" fill="white"/>
</svg>
