<svg width="603" height="857" viewBox="0 0 603 857" fill="none" xmlns="http://www.w3.org/2000/svg">
<path d="M401.394 711.424L387.753 728.154L382.934 732.064L377.114 733.701L373.658 736.52L362.018 749.977L356.653 754.342L343.194 757.615L314.004 758.979L301.182 763.617L297.181 767.708L293.088 775.892L289.269 778.62L290.633 775.619L290.906 773.528L289.815 771.8L286.905 769.709L283.449 776.528L278.357 781.802L275.083 787.076L277.356 793.896L282.631 786.621L290.542 788.986L291.542 781.893L293.543 782.53L294.816 783.712L295.726 785.439L296.544 787.622L298.181 784.621L298.817 781.529L298.363 778.438L296.544 775.619L301.455 772.8L303.455 775.346L304.728 779.62L307.365 781.893L311.185 780.62L314.64 778.256L318.369 776.892L323.007 778.711L302.273 788.349L292.543 795.805L286.996 805.898L287.723 810.717L292.452 807.535L308.184 789.167L312.822 786.076L318.278 784.712L305.092 798.26L303.091 801.988L300.091 809.808L297.908 813.263L296.362 817.719V823.357L295.726 828.176L292.997 830.176L289.633 831.085L284.268 834.995L280.994 835.905L269.627 836.814L265.262 835.905L254.259 825.63L250.894 823.902L246.074 825.175L242.982 828.085L242.073 831.904L245.529 832.54L248.439 833.722L260.442 838.814L245.62 834.723L230.433 832.813L227.523 833.722L219.157 838.36L217.338 840.269L216.065 843.452L212.882 845.361L205.426 847.998L196.241 855.545L195.514 857L191.876 855L186.42 846.634L182.419 844.725L177.417 843.179L88.5722 789.44L78.842 785.985L67.6568 778.256L60.6547 775.619L55.0166 775.074L50.3788 775.255L50.6516 774.437L69.2027 761.343L84.0253 757.342L97.3021 745.34L98.848 733.428L97.4839 721.153L92.3006 696.42V671.597L102.576 644.137L89.0268 630.134L67.5658 631.134L51.0154 618.768L43.2858 593.49L42.1945 548.389L25.3713 535.386L12.1855 510.745L0.636556 484.557L0 463.553L1.63686 453.824L10.4577 439.912L16.0048 435.456L21.0063 430.091L26.3716 411.269L23.8254 399.357L14.9136 377.171L13.1858 354.803L24.371 338.617L42.2855 339.981L60.3819 345.71L94.7559 339.981L140.77 293.517L201.424 298.336L233.252 306.61L276.72 323.614L295.18 314.794L287.45 233.049L417.944 143.212L436.95 117.116L451.864 86.4729L461.594 72.9246L476.598 35.7349L492.057 23.0049L519.066 7.63799L547.62 0L565.898 8.18357L578.993 29.188L587.905 52.3747L603 68.1054L583.267 86.9275L572.263 114.661L554.804 193.587L544.346 222.32L539.799 251.599L539.254 265.238L541.618 286.152L552.621 313.612L551.712 331.798L539.981 343.073L533.252 347.074L523.703 359.713L496.695 359.531L464.049 361.804L447.68 389.264L427.674 435.092L404.031 492.286V526.566L414.671 558.755L422.036 558.3L444.952 562.756L455.046 571.03L457.865 576.85L462.139 601.764L456.683 624.496L446.953 651.229L439.042 648.138L431.494 646.683L425.037 650.865L396.119 684.145L395.938 702.331L401.576 711.333L401.394 711.424Z" fill="#382017"/>
</svg>
