<?xml version="1.0" encoding="UTF-8"?>
<svg id="Layer_1" data-name="Layer 1" xmlns="http://www.w3.org/2000/svg" version="1.1" viewBox="0 0 228 462">
  <defs>
    <style>
      .cls-1 {
        fill: #fff;
        stroke-width: 0px;
      }
    </style>
  </defs>
  <path class="cls-1" d="M126,27c0-6.1-4.9-11-11-11s-11,4.9-11,11h22ZM107.2,442.8c4.3,4.3,11.3,4.3,15.6,0l70-70c4.3-4.3,4.3-11.3,0-15.6-4.3-4.3-11.3-4.3-15.6,0l-62.2,62.2-62.2-62.2c-4.3-4.3-11.3-4.3-15.6,0-4.3,4.3-4.3,11.3,0,15.6l70,70ZM104,69.4c0,6.1,4.9,11,11,11s11-4.9,11-11h-22ZM126,112.2c0-6.1-4.9-11-11-11s-11,4.9-11,11h22ZM104,153c0,6.1,4.9,11,11,11s11-4.9,11-11h-22ZM126,193.8c0-6.1-4.9-11-11-11s-11,4.9-11,11h22ZM104,234.6c0,6.1,4.9,11,11,11s11-4.9,11-11h-22ZM126,275.4c0-6.1-4.9-11-11-11s-11,4.9-11,11h22ZM104,316.2c0,6.1,4.9,11,11,11s11-4.9,11-11h-22ZM126,357c0-6.1-4.9-11-11-11s-11,4.9-11,11h22ZM104,397.8c0,6.1,4.9,11,11,11s11-4.9,11-11h-22ZM126,414.6c0-6.1-4.9-11-11-11s-11,4.9-11,11h22ZM104,27v42.4h22V27h-22ZM104,112.2v40.8h22v-40.8h-22ZM104,193.8v40.8h22v-40.8h-22ZM104,275.4v40.8h22v-40.8h-22ZM104,357v40.8h22v-40.8h-22ZM104,414.6v20.4h22v-20.4h-22Z"/>
  <path class="cls-1" d="M126,361c0-6.1-4.9-11-11-11s-11,4.9-11,11h22ZM104,361v64h22v-64h-22Z"/>
</svg>