<svg width="162" height="419" viewBox="0 0 162 419" fill="none" xmlns="http://www.w3.org/2000/svg">
<path d="M73.2218 415.778C77.5176 420.074 84.4824 420.074 88.7782 415.778L158.782 345.775C163.077 341.479 163.077 334.514 158.782 330.218C154.486 325.922 147.521 325.922 143.225 330.218L81 392.444L18.7746 330.218C14.4788 325.922 7.51401 325.922 3.21824 330.218C-1.07753 334.514 -1.07753 341.479 3.21824 345.775L73.2218 415.778ZM70 20.4C70 26.4751 74.9249 31.4 81 31.4C87.0751 31.4 92 26.4751 92 20.4L70 20.4ZM92 61.2C92 55.1249 87.0751 50.2 81 50.2C74.9249 50.2 70 55.1249 70 61.2L92 61.2ZM70 102C70 108.075 74.9249 113 81 113C87.0751 113 92 108.075 92 102L70 102ZM92 142.8C92 136.725 87.0751 131.8 81 131.8C74.9249 131.8 70 136.725 70 142.8L92 142.8ZM70 183.6C70 189.675 74.9249 194.6 81 194.6C87.0751 194.6 92 189.675 92 183.6L70 183.6ZM92 224.4C92 218.325 87.0751 213.4 81 213.4C74.9249 213.4 70 218.325 70 224.4L92 224.4ZM70 265.2C70 271.275 74.9249 276.2 81 276.2C87.0751 276.2 92 271.275 92 265.2L70 265.2ZM92 306C92 299.925 87.0751 295 81 295C74.9249 295 70 299.925 70 306L92 306ZM70 346.8C70 352.875 74.9249 357.8 81 357.8C87.0751 357.8 92 352.875 92 346.8L70 346.8ZM92 387.6C92 381.525 87.0751 376.6 81 376.6C74.9249 376.6 70 381.525 70 387.6L92 387.6ZM70 -4.80825e-07L70 20.4L92 20.4L92 4.80825e-07L70 -4.80825e-07ZM70 61.2L70 102L92 102L92 61.2L70 61.2ZM70 142.8L70 183.6L92 183.6L92 142.8L70 142.8ZM70 224.4L70 265.2L92 265.2L92 224.4L70 224.4ZM70 306L70 346.8L92 346.8L92 306L70 306ZM70 387.6L70 408L92 408L92 387.6L70 387.6Z" fill="white"/>
</svg>
