<svg width="515" height="870" viewBox="0 0 515 870" fill="none" xmlns="http://www.w3.org/2000/svg">
<path d="M508.955 140.269H508.351L502.911 139.363L497.471 139.665L499.435 157.482L492.786 171.524L483.266 184.509L476.012 198.853L473.443 215.009L472.99 229.051L471.025 243.395L464.074 260.456L456.216 291.258L456.67 323.57L453.95 354.976L436.571 382.909L434.153 393.78L435.665 405.708L446.696 445.116L449.718 450.552L453.798 454.176L463.016 458.403L465.888 460.517L468.759 465.349L470.421 470.331L471.025 475.767V482.109L467.096 492.98L463.772 499.472H461.052L466.945 505.512L486.137 507.475L495.657 511.249L502.457 519.101L508.2 530.274L512.28 542.202L514.396 552.47L515 568.777L511.675 574.816L470.27 582.668H459.087L414.811 575.571L404.082 577.232L397.432 579.497L395.317 584.177L394.561 589.311L391.841 593.388L386.854 595.653H383.681L380.205 594.596L364.187 592.331L356.178 589.613L348.925 584.328L341.52 575.571L334.72 582.365L343.182 592.18L342.427 598.37L337.591 603.202L334.266 608.638L333.209 619.207L331.395 723.691L332.906 744.226L320.515 748.303L297.545 739.243L285.91 743.924L281.074 769.592L271.705 771.857L257.651 767.931L238.913 774.726L226.068 795.713L222.441 846.597L215.943 867.886L214.583 868.188L204.761 870L170.76 845.238L153.533 837.235L135.248 836.631L126.181 834.517L119.381 828.629L118.021 820.023L119.834 810.661V801.3L112.278 792.995L100.794 794.807L89.0067 799.186L77.522 801.602L71.9307 799.639L78.5798 789.674L103.967 744.981L110.163 739.696L109.407 727.013L93.6913 676.885L52.7391 608.789L44.73 598.068L37.6276 585.989L31.1297 563.492L22.9695 554.131L13.6003 545.373L6.49795 536.616L0 520.309L0.755564 508.683L16.6226 484.977L21.6095 479.089L27.3518 475.314L33.6986 473.351L40.6499 472.747L43.6722 470.029L50.4724 452.515L55.3081 447.381L65.5839 441.795L70.8729 437.567L73.7441 431.074L76.9175 415.824L84.0199 411.144L86.74 407.671L90.669 404.198L113.638 396.045L118.625 393.176L146.128 358.75L150.511 351.05L156.706 350.597L219.57 310.585L228.788 308.471L234.833 302.884L241.935 289.748L247.829 274.951L250.7 263.778L250.398 254.568L248.131 247.773L245.109 241.432L242.691 233.731L242.388 228.749L242.691 182.999L240.575 171.826L234.833 159.294L200.378 110.071L180.28 89.6876L158.822 74.1358L136.457 68.3981L115.905 76.2496L95.958 94.2173L85.2289 107.353L75.8597 92.4055L76.1619 62.2076L124.217 6.94549L134.946 0L147.488 2.41588L160.635 7.54946L186.174 3.32178L210.05 9.96535L234.379 10.5692L262.033 3.32178L288.479 11.3242L307.67 32.0098L330.186 46.2027L359.352 46.9577L388.517 43.1829L426.598 80.9302L473.141 101.918L483.115 111.581L488.101 126.378L495.506 132.871L504.875 133.927L509.711 140.571L508.955 140.269Z" fill="#482011"/>
</svg>
