<svg width="510" height="576" viewBox="0 0 255 288" fill="none" xmlns="http://www.w3.org/2000/svg">
<path d="M47.8769 63.7388L53.7041 57.5354L58.7821 50.1247L71.1025 35.8028L76.2638 27.3928L78.1784 16.6097L81.3418 10.3231L86.7944 6.95078L107.939 1.66333L128.834 4.66094L132.829 7.36712L137.033 9.28225L173.204 6.07647L163.797 21.9805L165.628 34.1374L168.542 34.2623L174.411 32.8468L177.491 32.5553L201.466 37.7595L221.986 49.9998L232.933 53.1639L245.544 58.9926L253.369 72.8982L252.37 81.3498L243.546 104.789L242.547 110.91L239.592 115.697L237.178 118.279L233.39 124.399L225.149 154.416L218.448 166.449L210.664 176.232L201.799 184.101L195.43 192.178L195.347 204.168L201.049 213.411L210.623 216.95L228.063 227.775L227.73 233.853L228.937 239.807L226.814 248.966L219.988 253.546L209.832 253.296L199.759 254.67L178.115 262.164L158.094 265.786L149.062 270.199L134.411 285.645L122.049 281.607L117.429 263.621L109.687 258.667L102.07 269.033L82.5904 277.985L75.6394 267.618L66.8986 259.458L61.2795 255.586L55.1193 253.962L42.1746 256.502L37.5128 257.459L31.5191 259.749L26.1914 260.707L23.5275 257.751L21.5296 258.625L19.5317 259.125L17.8668 259.999L16.8262 261.997L15.411 262.164L8.70971 254.087L7.9605 240.639L6.25396 238.141L3.9647 235.976L1.9668 230.273L3.29873 224.111L7.83563 219.115L11.4568 213.078L11.5401 197.216L15.9105 191.429L18.9906 189.597L24.3599 184.434L24.7762 176.108L19.7398 163.534L18.6576 153.959L18.9073 147.713L20.9885 134.308L25.7751 121.151L33.7667 85.0135L38.8031 72.3153L47.8353 63.6972L47.8769 63.7388Z" fill="#482011" stroke="white" stroke-width="0" stroke-miterlimit="10"/>
</svg>
