<?xml version="1.0" encoding="UTF-8"?><svg xmlns="http://www.w3.org/2000/svg" viewBox="0 0 1454.51 836.74"><defs><style>.cls-1,.cls-2,.cls-3,.cls-4,.cls-5,.cls-6,.cls-7,.cls-8,.cls-9{fill:none;}.cls-1,.cls-2,.cls-3,.cls-5,.cls-6,.cls-7,.cls-8,.cls-9,.cls-10{stroke-miterlimit:10;}.cls-1,.cls-2,.cls-3,.cls-6,.cls-9{stroke:#444;stroke-width:1.5px;}.cls-11{fill:#fff;font-size:18px;}.cls-11,.cls-12{font-family:SFCompact-SemiboldItalic, 'SF Compact';font-style:italic;font-variation-settings:'opsz' 19, 'wght' 656;font-weight:600;}.cls-2{stroke-dasharray:4 4;}.cls-3{stroke-dasharray:3.97 3.97;}.cls-4{stroke:#161616;stroke-linejoin:round;stroke-width:5px;}.cls-4,.cls-8{stroke-linecap:round;}.cls-5,.cls-7,.cls-8{stroke:#fff;stroke-width:4px;}.cls-13{letter-spacing:0em;}.cls-6{stroke-dasharray:4.07 4.07;}.cls-7{stroke-dasharray:11.12 11.12;}.cls-9{stroke-dasharray:3.96 3.96;}.cls-12{fill:#666;font-size:12px;}.cls-10{fill:#e84221;stroke:#f48978;stroke-width:3px;}.cls-14{letter-spacing:0em;}.cls-15{letter-spacing:0em;}</style></defs><g id="Layer_3"><path class="cls-8" d="M189.93,261.21s21.96-4.07,23.18-4.07"/><path class="cls-5" d="M213.1,257.15c.39,0,2.82-.33,5.95-.77"/><path class="cls-7" d="M230.06,254.76c3.33-.5,5.82-.87,5.82-.87h15.45l9.35,1.22,20.74,10.57,6.75,2.2"/><line class="cls-5" x1="293.45" y1="269.6" x2="299.16" y2="271.46"/></g><g id="Layer_5"><line class="cls-1" x1="317.03" y1="274.21" x2="317.03" y2="272.21"/><line class="cls-3" x1="317.03" y1="268.24" x2="317.03" y2="31.95"/><line class="cls-1" x1="317.03" y1="29.97" x2="317.03" y2="27.97"/><line class="cls-1" x1="387.42" y1="274.21" x2="387.42" y2="272.21"/><line class="cls-3" x1="387.42" y1="268.24" x2="387.42" y2="31.95"/><line class="cls-1" x1="387.42" y1="29.97" x2="387.42" y2="27.97"/><line class="cls-1" x1="427.9" y1="274.21" x2="427.9" y2="272.21"/><line class="cls-3" x1="427.9" y1="268.24" x2="427.9" y2="31.95"/><line class="cls-1" x1="427.9" y1="29.97" x2="427.9" y2="27.97"/><line class="cls-1" x1="552.72" y1="260.07" x2="552.72" y2="258.07"/><line class="cls-2" x1="552.72" y1="254.07" x2="552.72" y2="31.97"/><line class="cls-1" x1="552.72" y1="29.97" x2="552.72" y2="27.97"/><line class="cls-1" x1="617.96" y1="247.59" x2="617.96" y2="245.59"/><line class="cls-6" x1="617.96" y1="241.53" x2="617.96" y2="32"/><line class="cls-1" x1="617.96" y1="29.97" x2="617.96" y2="27.97"/><line class="cls-1" x1="804.5" y1="274.21" x2="804.5" y2="272.21"/><line class="cls-3" x1="804.5" y1="268.24" x2="804.5" y2="31.95"/><line class="cls-1" x1="804.5" y1="29.97" x2="804.5" y2="27.97"/><line class="cls-1" x1="1066.49" y1="368.35" x2="1066.49" y2="366.35"/><line class="cls-9" x1="1066.49" y1="362.4" x2="1066.49" y2="31.95"/><line class="cls-1" x1="1066.49" y1="29.97" x2="1066.49" y2="27.97"/><path class="cls-8" d="M299.16,271.46l21.29-1.96,18.31.66,30.91-1.63,8.13,1.22,8.13.41,14.64,2.03,18.71-6.1,14.23-.81,16.67-.81,14.64,2.85,10.57,2.03,15.61-1.19,26.68-3.18,40.02-7.62,33.03-6.35,14.61-1.27,17.79-1.91s32.4-1.27,34.3-1.27,24.14-1.91,24.14-1.91l10.16-3.18s15.88.64,18.42,1.27,15.25,3.18,17.15,3.18,18.42,7.62,18.42,7.62l20.96,5.72,37.48,12.7,34.3,15.25,48.46,14.01,26.35,8.78,33.67,16.1,90.76,28.55,50.51,22.69,24.89,16.1,27.08,10.98s25.62,2.2,30.01,4.39,32.41,14.2,32.41,14.2l18.1,4.1"/><g id="EAF"><polyline class="cls-4" points="770.59 732.03 793.99 690.27 808.72 657.35 825.18 614.78 836.45 604.34 854.65 578.64"/><polyline class="cls-4" points="862.27 578.33 892.71 563.97 929.24 543.96 942.52 533.71 962.45 527.04"/><path class="cls-4" d="M965.53,522.15l8.61-2.66,14.35-2.66,36.16-12.23,21.23-2.13,39.6-7.98,13.77-4.79,24.68-11.17s29.84,2.66,32.71,2.13,17.79-7.98,17.79-7.98l6.31-9.04,9.18-7.45,9.76-11.17,18.94-13.3"/></g></g><g id="Layer_1"><text class="cls-11" transform="translate(525.51 304.84) rotate(-7.99)"><tspan x="0" y="0">N</tspan></text><text class="cls-11" transform="translate(543.15 302.36) rotate(-7.99)"><tspan x="0" y="0">O</tspan></text><text class="cls-11" transform="translate(560.43 299.93) rotate(-7.99)"><tspan x="0" y="0">R</tspan></text><text class="cls-11" transform="translate(576.93 297.62) rotate(-7.99)"><tspan x="0" y="0">T</tspan></text><text class="cls-11" transform="translate(591.73 295.55) rotate(-5.06)"><tspan x="0" y="0">H</tspan></text><text class="cls-11" transform="translate(609.62 293.97) rotate(-5.06)"><tspan x="0" y="0"> </tspan></text><text class="cls-11" transform="translate(618.78 293.16) rotate(-5.06)"><tspan x="0" y="0"> </tspan></text><text class="cls-11" transform="translate(627.91 292.35) rotate(-5.06)"><tspan x="0" y="0"> </tspan></text><text class="cls-11" transform="translate(637.06 291.54) rotate(-5.06)"><tspan x="0" y="0">A</tspan></text><text class="cls-11" transform="translate(653.67 290.07) rotate(-5.06)"><tspan x="0" y="0">N</tspan></text><text class="cls-11" transform="translate(671.4 288.5) rotate(-5.06)"><tspan x="0" y="0">A</tspan></text><text class="cls-11" transform="translate(687.22 287.1) rotate(-5.06)"><tspan x="0" y="0">T</tspan></text><text class="cls-11" transform="translate(701.46 286.58) rotate(11.56)"><tspan x="0" y="0">O</tspan></text><text class="cls-11" transform="translate(718.59 290.08) rotate(11.56)"><tspan x="0" y="0">L</tspan></text><text class="cls-11" transform="translate(732.88 293) rotate(11.56)"><tspan x="0" y="0">I</tspan></text><text class="cls-11" transform="translate(742.67 295.33) rotate(20.46)"><tspan x="0" y="0">A</tspan></text><text class="cls-11" transform="translate(758.32 301.16) rotate(20.46)"><tspan x="0" y="0">N</tspan></text><text class="cls-11" transform="translate(774.99 307.38) rotate(20.46)"><tspan x="0" y="0"> </tspan></text><text class="cls-11" transform="translate(783.59 310.6) rotate(20.46)"><tspan x="0" y="0"> </tspan></text><text class="cls-11" transform="translate(792.18 313.8) rotate(20.46)"><tspan x="0" y="0"> </tspan></text><text class="cls-11" transform="translate(800.78 317) rotate(20.46)"><tspan x="0" y="0">F</tspan></text><text class="cls-11" transform="translate(814.84 322.25) rotate(20.46)"><tspan x="0" y="0">A</tspan></text><text class="cls-11" transform="translate(830.34 328.03) rotate(20.46)"><tspan x="0" y="0">U</tspan></text><text class="cls-11" transform="translate(846.74 334.15) rotate(20.46)"><tspan x="0" y="0">L</tspan></text><text class="cls-11" transform="translate(859.46 338.93) rotate(18.65)"><tspan x="0" y="0">T</tspan></text><circle class="cls-10" cx="1066.86" cy="368.35" r="6.32"/><circle class="cls-10" cx="804.46" cy="271.28" r="6.32"/><circle class="cls-10" cx="617.84" cy="247.59" r="6.32"/><circle class="cls-10" cx="553.06" cy="260.07" r="6.32"/><circle class="cls-10" cx="427.4" cy="267.28" r="6.32"/><circle class="cls-10" cx="386.87" cy="271.36" r="6.32"/><circle class="cls-10" cx="316.96" cy="270.51" r="6.32"/><text class="cls-12" transform="translate(303 19.17)"><tspan class="cls-15" x="0" y="0">1</tspan><tspan x="5.66" y="0">999</tspan></text><text class="cls-12" transform="translate(371.96 19.17)"><tspan class="cls-15" x="0" y="0">1</tspan><tspan x="5.66" y="0">967</tspan></text><text class="cls-12" transform="translate(414.49 19.17)"><tspan class="cls-15" x="0" y="0">1</tspan><tspan class="cls-13" x="5.66" y="0">9</tspan><tspan x="12.89" y="0">57</tspan></text><text class="cls-12" transform="translate(537.71 19.17)"><tspan class="cls-15" x="0" y="0">1</tspan><tspan x="5.66" y="0">944</tspan></text><text class="cls-12" transform="translate(603.28 19.17)"><tspan class="cls-15" x="0" y="0">1</tspan><tspan x="5.66" y="0">943</tspan></text><text class="cls-12" transform="translate(788.96 19.17)"><tspan class="cls-15" x="0" y="0">1</tspan><tspan x="5.66" y="0">942</tspan></text><text class="cls-12" transform="translate(1051.49 19.17)"><tspan class="cls-15" x="0" y="0">1</tspan><tspan class="cls-14" x="5.66" y="0">9</tspan><tspan x="12.82" y="0">39</tspan></text></g></svg>