<?xml version="1.0" encoding="UTF-8"?><svg xmlns="http://www.w3.org/2000/svg" xmlns:xlink="http://www.w3.org/1999/xlink" viewBox="0 0 1454.51 836.74"><defs><style>.cls-1,.cls-2,.cls-3,.cls-4,.cls-5,.cls-6,.cls-7,.cls-8,.cls-9,.cls-10,.cls-11{fill:none;}.cls-2,.cls-3,.cls-4,.cls-7,.cls-8,.cls-9,.cls-10,.cls-11,.cls-12{stroke-miterlimit:10;}.cls-2,.cls-3,.cls-4,.cls-8,.cls-11{stroke:#444;stroke-width:1.5px;}.cls-3{stroke-dasharray:4 4;}.cls-4{stroke-dasharray:3.97 3.97;}.cls-5,.cls-6{stroke:#161616;stroke-linejoin:round;}.cls-5,.cls-6,.cls-10{stroke-linecap:round;}.cls-5,.cls-12{stroke-width:3px;}.cls-6{stroke-width:5px;}.cls-7,.cls-9,.cls-10{stroke:#fff;stroke-width:4px;}.cls-13{fill:#fff;}.cls-8{stroke-dasharray:4.07 4.07;}.cls-14{fill:#666;}.cls-9{stroke-dasharray:11.12 11.12;}.cls-11{stroke-dasharray:3.96 3.96;}.cls-12{fill:#e84221;stroke:#f48978;}.cls-15{clip-path:url(#clippath);}</style><clipPath id="clippath"><rect class="cls-1" x="234.49" y="579.36" width="978.95" height="204.14"/></clipPath></defs><g id="Layer_2"><path class="cls-5" d="M1318.93,232.62l-.3,2.26.6,3.08,1.16,2.76,1.39,1.33,3.12.45,3.14,1.58,2.88,2.4,2.28,2.88.84,1.9.31,1.85.16,1.93.39,2.19.75,1.91,3.03,4.87.68,1.81.26,1.59.38,6.66-.21.78-1.52,2.71-.44.6.56,2.18-3.09,3.64-.97,1.98.08,2.3-.44-.35-.32-.13-.32-.07-.44-.16.23.39.12.29.2.69-1.73.21-1.58,1.1-2.5,2.98.3,1.26,1.55,1.74,2.95,2.53v.65l-.06.21-1.09,3.65-.62,1.07-.5,1.57.75,1.5,1.97,1.86,3.25,4.24,1.05,2.44.07.17-1.33,1.04.78,1.68,2.28,2.81.47,1.08-.71,1.23-3.3.72-1.01.95.94,2.75,3.34,1.85,6.68,1.91,7.98,4.42,8.78,1.5,1.16-.4,2.54-1.79,1.56-.41.72.19.93.9.62.21.76-.1,1.49-.44,2.09-.26,4.4-1.2h2.47l2.67.83,4.03,2.37,6.09,3.57,4.22,3.69,1.87,2.1.82,1.39.34,1.44.27.83.62.63,1.1.81.23.93.02,1.07.27.55.97-.6,2.64,3.06,1.35.83.37.05.81-.13.35.08.35.32.42.74,4.47,5.9,1.13,1.93.71,1.19.83,3.59.82,1.18-5.93-4.31-1.42-1.21-4.36-2.04-1-1.15-1.97-2.99-1.12-.79-1.8.53-7.75,6.4-.32,1.07.38,3.1-.14,1.13-.05.36-.43,1.22-2.42,4.88-.33,1.27-.14,1.55.14,1.33.25,1.22-.05,1.13-.73,1.12h-.01s-.36,2.12-.36,2.12l.26,1.78-.03,1.71-1.23,1.88-1.4,1.03-3.78,1.73-1.61.39-1.85-.16-5.04-2.51-1.75-.2-3.96,1.05-1.68.19-1.62-.2-1.14.03-1.09.4-1.49.93-.81,1.14.44,1.14,1.91,2.27v.04s.33.89.33.89l.43,2,.86,1.87-.02.7-.18.62.03.84.25.8.88,1.87.06.83-.51,1.71.08.81,1.88,1.45,3.25,1.71,2.81,2.01.6,2.31-1.45,2.85-.37,1.49.67,3.7-.7,1.12-1.18.99-1.03,1.75v.02l.4.65.23.64.31,1.45.44.67.66.51.55.58.05.85-.04.78.24.72.32.71.7,2.1,1,1.41,1.18,1.15,3.87,1.86.35,2.75-1.98,6.77-.29,1.87.14,1.18.36,1.12.37,1.69-.32.68-.63.64-.23.57.91.47,1.32.42.56.37.54.61.52,1.55-.02,1.93-.34,3.69.67,4.74-.09,1.6-.92,3.76v1.1s.22,2.36.22,2.36l-.05.86-.24,1.52.21.81.67.47,1.07.5,3.65.67,2.41-1.4.93-.2,1.14.44,1.03.88.9,1.26.56,1.46.03,1.48-1.64,2.37-2.64,2.07-2.05,2.34.31,4.45-.25,1.8-.45,1.82-.48,1.36-.54.73-1.3.55-.6.52-.1.81.59,1.74-.4.58-1.41.68-.96.76-.68,1.18-.6,1.94-.64,1.42-1.76,2-.67,1.33h0s-.62,1.2-.62,1.2l-.44,1.13-.13,1.18.37,1.3.06,1.17-.64.99-.75.95-.1.33-.21.7,1.28,2.02,2.54.41,4.73-.56.87.27,2.62,1.27.79.56.43.85.27,1.07.41,1.14.81,1.05.56.19.5-.18.48-.1.55.43.05.46-.29,1.47-.05.55.54,1.05,1.03.11,1.17-.41.93-.53,1.99-.23,2.04.94,1.82,1.59,2.68,3.29.17.86-.75,1.2-2.53,2.04-.6.81-.32,2.79,1.47,1.66,1.64,1.25.29,1.57-.66,1.85-.48,2.27-.14,2.28.39,1.88h0s.29,1.57.29,1.57l-.97,2.74.45,1.51.98.56,2.71.25,1.12.85,1.03,2.62.69.77,2.65-.4.66.83.43,1.3.61,1.24,4.2,2.7,1.65,1.94-.23,2.97-.86,1.12-1.01.59-.91.77-.51,1.64.23,1.84.69,1.56.45,1.55-.45,1.77-.9-1.58-1.46-.74-7.65-1.08-1.36.06-2.34,1.09-2.83,2.08-2.62,2.48-1.76,2.25-1.81,1.43-1.92,1.06-6.2,2.04-.58,1.03-.26,1.43-1.13,1.95h0s-.01.01-.01.01h0l-.67,1.53-.69.67-.9.07-3.03-.79-.66-.54-.47-.96-2.94-6.65-.54-1.89.05-1.95.63-1.86,1.22-1.59.93-.55.83-.16.72-.33.6-1.07.09-.89-.08-1.14-.37-2.01-.62-2.1-.86-1.58-1.19-1.23-1.64-1.07-7.03-2.93-1.39-.24-2.44-.41-3.3.53-2.67,2.3-2.16,3.15-2.23,2.58-3.91.71-1.31,1.35-.92.25-.54-.35-1.57-1.54-.72-.5-1.73-.44-1.9-.18-7.48.52-1.76-.23-1.85-.76-1.33-1.01-.6-.33-.94-.15-.9.15-1.8.69-.93.13-1.19-.49-3.39-2.79-2.97-1.5-.99-.77-1.92-1.5-.87-.18-1.35.21-.64.3-.68.7-.65.13-.61-.09-.51-.18-9.59-5.19-1.25-.36-2.27.21-2.93.79-2.8,1.19-1.86,1.42-3.11,1.07-2.94-.44-6.03-2.01-.63-.46-.32-1.58-.63-.48-.87-.11-.65.05-3.6,1.47-.48.33-.45.74-.15.64-.09.64-.28.72-9.15,13.39-.9,2.49-.25.5-1.17.52-6.28,1.06-4.18,1.39-3.26.38-.05-2.59-.14-1.29-.57-.55-.83-1.17,1.3-5.12-.48-1.17-.5-.26-2.49-2.01-.32-.49-.37-.9-.32-.49-.45-.14-.48.39-.46.51-.41.2-2.22-1.08-1-.17-.08-.39.12-.91-.09-1.06-.83-1-1.33,1.07-1.06.64-3.66,4.86-5.5,5.19-3.19,1.93-8.24,1.95-30.39,7.2-20.31.97-1.58-.43-3.26-1.34-17.41-3.52-13.68,2.03-3.61,1.39-9.76,5.43-3.35.98-1.67.09-1.59.32-1.55.6-1.47.91-9.65,6.5-5.2,3.5-2.73,1.28-2.74.51-2.62.9-7.25,4.37-15.65,5.9-23.6,4.53-14.74,2.83-3.92.16-11.21-3.79-3.81.27-1.61.48-11.86.57-5.13-.66-4.44-2.33-2.11-2.23-7.72-8.17-3.6-2.01-13.87-4.19-4.79-.61-2.5.26-4.89,1.91-7.07,4.52-1.32.84-2.04.56-11.69,5.39-12.09,2.59-4.43,1.97-10.74,6.94-3.04-.02-11.86-2.19-1.62.13-4.64,1.2-1.36-.18-1.2-.37-1.21-.1-1.37.62-1.13,1.15-.57.85-.68.2-1.44-.8-1.37-1.23-.27-1.04.63-2.92-.08-1.89-.57-1.17-2.22-2.07-1.12-1.05-1.37-.8-1.46-.57-1.39-.33-4.61-.3-13.43-4.68-.07-.03-.69-.09-.68.04.25,2.23-.82,1.76-1.19,1.61-.9,1.79-.32,2.02-.06,1.76-.25,1.79-.87,2.13-.99,3.84.05,4.04-.34,3.92-2.18,3.49-.31,1.36.19,1.5,1.38,4.92.38.68.51.45,1.15.52.35.26.35.6.2.62.08.68-.02.8-.47,1.36-.41.82-.33.02.74.73,2.41.25,1.19.47.84.99v.02s.72,1.38.72,1.38l.51,1.49.26,1.28.07,2.04-.42.75-5.16.99-1.39-.02-5.53-.86-1.34.21-.82.28-.26.58-.1.64-.35.51-.62.29h-.4l-.44-.14-2-.28-1-.34-.91-.65-.92-1.1-.84.86,1.05,1.23-.1.78-.6.6-.42.68-.14,1.33-.23,13.05.18,2.56-1.55.52-2.87-1.13-1.45.59v.02s-.62,3.18-.62,3.18l-1.16.28-1.76-.5-2.34.85-1.61,2.62-.44,6.36-.81,2.66-.17.03-1.23.22-4.24-3.1-2.16-1.01-2.28-.07-1.13-.27-.84-.74-.17-1.07.22-1.18-.02-1.16-.91-1.04-1.42.22-1.47.54-1.44.29-.7-.24h0s.83-1.25.83-1.25l3.16-5.59.78-.66-.09-1.58-1.97-6.26-5.12-8.51-1-1.34-.9-1.51-.82-2.8-1.03-1.18-1.18-1.09-.89-1.09-.82-2.04.1-1.45,1.98-2.97.62-.73.71-.47.78-.24.86-.07.37-.34.85-2.19.61-.63,1.28-.69.66-.53.35-.82.4-1.9.88-.58.34-.44.5-.44,2.87-1.03.62-.36,3.44-4.3.55-.96.77-.06,7.84-5.01,1.15-.27.76-.7.88-1.63.73-1.86.36-1.4-.04-1.15-.29-.86-.37-.8-.3-.97-.04-.63.04-5.73-.27-1.4-.71-1.56-4.31-6.16-2.51-2.54-2.69-1.95-2.8-.72-2.57.98-2.49,2.24-4.16,5.12-1,.82-1.21.33-.71.59-2.42,2.8-1.11.92-2.8.67-6.06.28-2.65.97-.84.85-.85,1.69-.8.56.28-.63.05-.44-.23-.37-.61-.43-.72,1.41-1.06,1.1-.68,1.1.47,1.41,1.1-1.51,1.63.5.21-1.47.42.13.27.24.18.36.17.45.34-.63.13-.64-.1-.64-.37-.58,1.03-.59.42.53.26.9.54.47.8-.27.71-.5.77-.29.96.37-4.3,2.01-2.01,1.55-1.16,2.09.14.99.98-.67,3.26-3.81.97-.63,1.13-.29-2.74,2.82-.42.77-.62,1.62-.46.71-.31.92v1.16s-.13,1-.13,1l-.57.42-.7.18-1.1.82-.69.18-2.35.18-.91-.18-2.29-2.13-.71-.35-1,.27-.64.61-.18.79.72.13.61.24,2.49,1.06-3.08-.85-3.16-.39-.61.19-1.75.96-.38.4-.26.67-.66.39-1.56.55-1.9,1.56-.14.3-.75-.41-1.14-1.73-.83-.4-1.03-.31-18.45-11.16-2.02-.71-2.33-1.61-1.45-.54-1.16-.11-.96.04h-.25s-1.16.26-1.16.26l-.99.44.16-.42.39-1.44-1.04-.51-2.99-3.22-5.97-3.17-.42.68-2.13-1.19-3.13.71-4.83,2.29-2.2.34-.83.34-2.22,1.25-.43.39-.71,1.71-.38.38-2.24,1.24-6.42,5.8-7.86,4.94-2.28,1.96-6.26,8.03-.64,1.37-.28.91-.69.58-1.51.7-2.59,2.68-2.53,1.42-.18,2.41.37,2.88-.15,2.42-1.47,1.17-2.23.46-2,.71-.77,1.92.4-.14.26-.25-.18.59-1.37,1.82-.61,1.13-.26,1.31-.06,1.07-.39.63-1.28.02v-.57l.69-1.63-.36-2.49-1.1-2.29-1.5-1-1.1-.37-.88-.63-.88-.22-1.14.9-1.3,2.22-.71.79-1.23.39.56.15.23.16.21.37-.8.75-1.07,1.9-.89.39-.72.12-2.49,1.06-.53.42-2.21,2.44-.36.96-.47,2.44-.41.64-.21-.56-1.82-2.86-.27-1.25-.68-.35-.96.2-1.04.44-1.7,1.51-1.64,2.17-1.59,1.56-1.59-.3,1-.56v-.67l-1.69-.19-3.12-.84-1.46-.2-1.57.31-2.59,1.34-1.07.25-2.82-.98-1.53-.2-1.35,1.61-1.6.21-3.25-.08-2.16.61-.84.07-.9-.22-1.56-.83-.75-.19-1.67.47-.92,1.15-.68,1.41-.99,1.28-.8.58h-.29s-.24-.28-.24-.28l-.68-.3-.93-.12-2.3.12-4.84-1.21-1.42-.07-4.68,2.56-.84.3-.62.98-3.86,3.05-3.15-.21-6.56-1.55-2.8-1.38-4.42-2.89-.28-.19-2.66-.25-1.31-.38-5.56-3.22-.75-.81-.54-1.07-1.28-.54-1.5-.42-1.17-.71-3.41-4.58-.61-.08-.32-.46-1.36-.93-.31-.53-.29-2.57-.21-.8-1.71-2.49-4.42-3.9-.89-2.61-.11-.74-.3-.64-.84-1.12-.82-1.41-.23-.3-.98-.41-.21-.04-1.28-2.81-.91-1.5-1.09-.65-4.46-4.55-.53-.28-.64-.11h-.83s-.8-.2-.8-.2l-.56-.4-.44-.42-.43-.24-2.93.12-1.47-.22-.62-.89-.83-.79-1.86-.69-2.03-.33-1.31.26-.68-.67-2.8-1.2-1.44-2.02-.93-.91-.9.11-1.52-.24-5.53-2.48-1.23-1.02-1.06-1.24-13.76-6.16-2.11-.39-.17-2.21-2.59-1.52-29.26-4.41-11.95.68-2.03-.56-1.54-.93-2.94-2.31-4.23,2.88-1.96,1.95-1.03,2.83-.96,1.6-.34.75v2.8l-.38,2.97.08,1.62.8,1.37v.57l-.57.76-.45.73-.31.93-.16,1.31.12,1.66.43.94.53.74.41,1.06.5-.62-.18,1.92-1.01,3.21.19,1.07-2.47,2.07-1.1,1.4-.88,3.22-1.59,2.48.07.8-.97,1.5.12,1.57.79,1.26,1.06.6-.55,1.29,1.88.67-1.04,1.31-1.96,1.7-.87,1.88h.5l.33-.41.05.03.13.22.53.15-.74.75-1.02.75-.89.85-.8,2.03-.97,1.17-2.1,1.85.13-3.81-.32-1.58-.85-.79-1.73.51-7.73-3.59-1.52-.06-5.49.93-.68.8-.27,1.33-.06,1.88h-.46l-.09-.57-.45-1.23-.46,1.73v.74l-1.03-.67.04.64-.04.65-2.74-.62-.54-.28-.56-.51-.71-.29-.97.4h1.54v.67l-4.92,2.63-1.1-.17-.88.52-.82-.05-.85-.29-.93-.18-.66.05-.36.18-.98,1-1.23.68-2.72.64-1.02.54.24.09.2.02.11.13-.05.44h-.7s-1.8.56-1.8.56v.62h1.5l-.99.99-1.04.79-1.15.53-1.3.21v-.67l.4-.3.21-.28.15-.31.23-.36-.95.14-.23.14-.32.39-.84-.93-.87-.3-.89.14-.89.41-.23.33-.05.4-.23.35-.78.15-.04.29-1.19,1.62-.3-1.85-2.5-1.2-.74-1.89.99.5.43-.5-.08-.82-.55-.42-3.72.56v-.56l.66-.38.71-.26.78-.11.8.07-1.58-.71-5.89.1-1.97-.46-4.55-2.63-.85.85-.38-.82-.26-2.5-.43.66-.28-.15-.27-.4-.46-.11-.75.32-.29.21-.17.25-.39.41-.37.55-.26.61-.31.53-.55.28-.64-.43-.45-.93-.39-.58-.52.65-4.45-4.22-.33-.31-.65-1.33-.96-1.14-4.35-1.41-1.21-1.53-1,.67-.28-1.19.07-.27.21-.39v-.67h-2.03l.54-.57-.84-.54-.48-.13h-.72s.37-.85.37-.85l.56-.57.72-.33.84-.11-.04-.42-.05-.08h-.11s-.25-.11-.25-.11l.43-1.66-.43-1.55-.94-1.2-1.09-.61v-.56l.96-.8.44-.26.64-.18v-.68l-.29-3.16-.39-1.55-.81.43h-.54l-.88-1.12-3.5,1.36-1.6-.24,1.34-.35.3-.88-.4-1.21-.8-1.34.41-.61.65-1.68.49-.87,1.03.91.9-.88.93-1.34,1.13-.5v.57l-.42.98.6.32.86-.25.46-.71-.17-.81-.39-.81-.5-.69-.44-.51-4.54-3.25-5.68-2.41-.74-.86-.52-1.3-1.19.9-1.35,1.67-.97.97v.56h.5v.62l-1.37.12-.59.17-.53.33-.26.76.19.83v.66s-.93.24-.93.24l.37.78.21.26.41.26-.49.62.74.84.26.4h.46l.42-.92.42-.71.15-.84-.45-1.26,1.29,1.2-.46,1.53-1.23,1.41-1.09.82.45.93-.8.48-1.25.1-.93-.21-.75-.84v-.82l.62-.63,1.12-.25v-.67l-1.25-.62-.75-.64-.74-.31-1.25.39-.37-2.41-2.65-1.85-3.26-.67-2.18,1.14h-.5l-.36-1.68-.78-.67-.97.35-.91,1.38-.52-.6-.93-2.51.66-1.24.3-1.81-.19-1.67-.77-.88-.04-.42.11-.11h.2l.23-.08-.14-.27-.15-.19v-.3s.3-.54.3-.54h-.5l-.34.84-.11.39-.05.69-.41-.37v-.11s-.18-.71-.18-.71l-.93-1.05-2.17-.36-1.59.92.25,2.24-.74-.63-.71-.19-.74-.07-.81-.3,1-.62v-.68h-1.64s-1.03-.24-1.03-.24l-.57-.89-.25-1.92.5.04.34-.07.16-.31-.08-.55-.19-.24-.18-.16-.1-.29-.15-.96-.34-.56-.33.05-.17.85-.65.82-1.46.46-2.11.24-.77.23.05.55.46.64.5.5.45.05.61-.2.7.04.74.73-.77,1.32-.56,1.35-.77.93-1.39.07-3.79-1.95-.73-.54h-.45l.3,1.43.15.49-1.92.12-.76-.25-.31-.79.32-.82.77-.39,1.9-.35v-.62l-.89-.6-1.03-.93-1.13-.56-1.16.53-1.02,1.49-.48,1.51.21,1.31,1.02.92-.33,2,2.9,2.21.48,2.07-.88-.61-1.15-.39-1.03.28-.48,1.41-.48-.28-.47-.4-.02.44-.09.29-.18.23-.3.28.36.13h.09s.14.49.14.49l-3.77,1.34-1.43,1.09-1.31,1.98-.99,2-1.4,2.25-1.7,1.38-1.93-.66-.28.58-.21.31-.32.17-.64.18.15.29.16.64.14.31-.88.39-.73.1-.55-.3-.33-.8-.74,1.27-.93.2-.96-.54-.85-.92.14-.28.21-.68.15-.28-.39-.28-.22-.28-.39-.62h5.49l1.42-.64.84-.9.72-1.07,1.04-1.17-1-1.24-1.41,1.34-.63.47v-.57l.71-.79.25-1.09-.24-1.08-.72-.77-.74-.5-.19.28-.07,1.13-.35.44-.78-.09-.84-.35-.52-.34-.64.28h-.83l-.72-.36-.3-.81.37-.34,2.61-.62-.5-.62,1.54.1.45-.1.34-.27.44-.44.31-.4-.05-.13,2.77-.2.72-.42-.27,1.47,1.07.09,1.15-.84.04-1.34-.69-.51-1.44-.15-.4-.57.14-.6.55-.51.85-.76.49-.68.25.63.3.4.95.9-.39-1.58-.11-1.88-.39-.79-.85-.21-.85.14-.64.43-1.25,1.97-1.6,1.07-.58-.1-.36-.97-1.07,1.09-2.84.85-1.07.61h-.5l-.37-1.13-.69.3-.9.88-1.07.56-.38-1.25-.51.11-.56.69-.54.45-.52-.31-.46-.63-.47-.16-.53,1.11h-.5l-.91-.78-1.28-.78-1.44-.3-1.36.62v-.62l-.86.44-.84-.05-.93-.25-1.14-.14-1.22.42-1.53,2.01-1.04.68v.62l.19.8-1,2.87-.14,1.99-2.42-1.23-1.32-.47-1.23-.22-1.31.17-1.08.3-.77-.07-.38-.95-4.98,1.81-.32.63-.31.44-.37.23-.34-.18-.9-.9-.53-.21-1.66-.31-.72-.03-.84.34-.17-1.11-.58-.61-.81-.06-.93.53.02-.39-.11-.12h-.2l-.26-.06.43-.57v-.55l-.34-.47-.6-.33v-.56l.91.38,1.2.29,1.23.03.93-.41.64-.94.3-1.46.82-1.04.81-.62.68-.16,1.78.16,5.36-.79,2.61.17,1.39-.41.4-.99.07-1.22.4-1.1,1.6-.43,3.34,2.02,1.04-.4,1.15.64,1.02-.07.95-.18.86.28,1.87-1.8.98-.5,6.38-.2.78-.32.47.59,1.17.56,1.48.37,1.41.06,2.55-.31,1.19.37,1.24,1.19.24-.95.45-.51,1.35-1.02-.46-1.1-.69-.55-1.01-.2-1.37-.03.5-.62.69.24.09-.53-.43-.87-.85-.76.33-.06.21-.13.21-.18.28-.2.54.28.56-.22.63-.42.77-.31v-.57l-1.45-1.5-.58-.84-.46-.83.96.68.54-.68-.43-.27-.2-.28-.15-.33-.26-.42.61.04,1.26-.1.62.05v-.56h-1.45v-.62l1.72-.03.7.17.52.48.46-.42.36-.11.34.15.37.38h.49l.74-.51,1.59.82.71-.31h.4l.14.68.45,1.19.21-.48.02-.19-.09-.17-.14-.47.23-.39-.02-.3-.28-.25-.51-.25v-.63l.68-.1.58.09.45.25.33.4,1.45-2.5.53-.62v-.68h-.99l.58-.88.4-.94,1.18.9,1.18.22.62-.51-.48-1.29,3.9-1.56,2.16-.5-.02-.58-.48-.65-.57-.45-.75-.19-9.51,1.44-3.51-.07-1.38.34.2.97v.67l-1.25-.67-7.76-1.25-.8.26-.91.8-.83.19-.8-.07-2.16-.51-1.83.14-5.95,1.97-.77-.3h-.46l-.11.39-.43.91-.55-.2-.74-.13-.85.04-.85.3-1.44-1.06-2.34-.02-2.33.81-1.41,1.46-1.35-.8-2.02-.83-1.69.15-.37,2.15-1.7-1.24-.76-.42-1.03-.21-2.22.26-.81-.26-.72-.69-1.31-1.96-.46-.48-1.09.05-1.13.94-.42-.64.14-.35h-.55l-.15.86-.84,2.26-.28-.49-.04-.16.12-.16.2-.5-.11-.1-.14-.02-.14-.09-.11-.36.32-.35.06-.09-.13-.18-.25-.62-.66.45-1.93.39-.9.4v.57l.3.99-.45,1.01-.87.81-1.02.37.35.9.2.35-.67-.19h-.37s-.51.19-.51.19l-.44-.68-1.29.32-.77-1.37-.39-2-.09-1.6-.36-1.52-.64-1.18-.27-1.33.75-1.93.63-.04,1.2-.51,1.29-.85.91-1.09-.51-.47-.61-.2-.66.14-.7.52-.28-.31-.12-.26-.14-.68.55.57.82-1.02,2.29.85,1.37-.4-.04-.65.16-.71.09-.82-.21-.99.78.23.52.52.25.8-.05,1.07h.49l.39-.98.53-.71.56-.19.52.57.21-.2.08-.13.04-.13.16-.22-.02,1.57.26.42.53-.07.77.06.59.41.42.41.53.15.95-.4-.17.25-.1.08-.11.06-.17.18,1.06,1.9,1.04.68,1.12-.28,1.91-1.37,1.53-.68.64-.54.77-.47,1.72.03.76-.41v-.69l-.96.16-.24.13-.33.39-.53-2.9-.56-1.51-.85-.65v-.68l3.42-.76.94.22-.88,1.86.81-.27.59-.41,1.1-1.26-1.14-.42-.42-.63.06-1.79.17-.4.92-.66.41-.48.21-.66.09-1.18.14-.66-.89-.62-.05-.06-.63-.15-.17.25-.04.37-.16.21-1.79-.07-.84.24-.36.74-.37,1.38-.93,1.24-1.16.64-1.07-.41,1.29-1.11.15-1.2-.81-.82h-1.64s-.23.36-.23.36l-.69.7-.73.4-.35-.55.19-.87.48-.87,1.34-1.67-.09-.72.36-.99.1-1.24-.82-1.5h-.55l-.3,2.58-1.63.92-2.03-.35-1.57-1.25-.59-2.03.59-1.87,1.35-1.47,1.7-.84-.87-1.39-1.41-.62h-.27s-1.23.06-1.23.06l-1.19.64-.66,1.19-.34,1.2-.75.78-1.78-.03v.68l1.07.72-.45.37-4.29.28-1.01.37-.84.77-.53-.71-.52-.38h-.49s-.45.4-.45.4l-.12-.67-.11-.29-.27-.29-.57.4-.2.06-.2-.18-.57-.29.72-.84.5-.91.14-.97-.32-1.04,1.12-.53.43-.1v-.63l-.64-1.78.37-4.18-1.27.37-.42-.54h-.49s-.53.41-.53.41l-.55.7.3-1.54.43-1.37.19-1.32-.43-1.41.27-.59-.29-.39-.28-.54.3-1.04,1.15.77.65-1.45.21-2.05-.27-1.04-1.07-.38-4.2-2.77-6.38-1.76-2.72-1.44.68-1.89,1.28-.36,4.9.36,1.59-.21,6.27-2.3.97-.69,1.69-2.16.52-1.4.28-2.07.08-1.99-.08-1.15-.56-.86-.68-.79-.45-1.08.14-1.75.25-.34.95-.83.36-.66.22-.86.14-.76-.05-.75-.31-.85,1.04-.93-.62-2.07-1.98-3.39-1.83.65h-2.67l-2.65-.47-1.8-.75-.38-.52-.26-.65-.42-.55-.74-.24-.59-.03-.57-.14-.42-.28-.17-.47-.23-1.43-.64-.47-2.11-.34-3.76-1.47-1.91-.2-2.3.46-1.29.52-.49.05-.36.31-.21.67-.3.67-.62.31-.59-.49-1.67-3.31.39-1.18-.07-1.36-.36-1.37-.46-1.21-.74-1.27-1.61-1.62-.68-.91-1.28.65-.33-1.14.16-2.74-.98-.9-1.14.1-1.26.5-1.39.3-4.56.03-.72.29-.95,6.02-.34-.26-.04-.08-.16-.25h-.46l.21,1.32v1.2l-.37.89-.88.4-.46-.4-.86-2.27-.67-1.14-.04,1.95-.75.15-.99-.76-1.42-1.57-.47-.77-.14-.93.28-1.3-2.01.52-1.83-1.54-1.78-1.98-1.8-.8.33,1.47.15.43h-.49l-.39-.57-1.6-1.62.12-.95.2-.82.02-.82-.34-.93h-.5l-.61,2.49-1.53.61-1.85-.63-2.37-2-.69-.42-3.79-1.19-.11-.6.42-1.44,1.94.85.8-1.28.69-1.69,1.59-.41v-.69l-1.37-.94-.2-1.7.58-1.01.99,1.12.12-.86.18-.37.28-.22.4-.39.3,1.13.05.99-.23.87-.62.82.37.29.37.18.45.09.59.02.56.16.14.37.11.43.46.3,1.06.08,1.05-.22.5-.61-.62-1.09v-.64l1.14.75.46.02.89-.13.85-.37,1.85-1.31.55-.28,1-.84.08-1.86-.66-1.93-1.21-1.03v-.69l1.85.88.89.98.64-.1,1.1-2.39-1.03-.63-1.79-1.65-1.49-.55-.96-.89-.71-.11-.65.39-.57,1.25-.51.27-1.41-.08.02-.39.66-.96.48-1.76-.28-1.12-2.21-3.33.45.63-.2-1.13-.9-2.82-.11-.56.07-.62-.84-3.52.02-1.32.15-1.38.38-1.07.71-.43,1.1-.19,1.6-.84.81-.19,1.94.16,1.82.47,1.61.78,1.31,1.09,2.48,2.71,1.19,1.71.36,1.44,1.69,2.71,1.84,2.39.64.63.49.37.41.5.4,1.04.15,1.03-.04.91.04.88.39.93-.48.4-.26.14-.29.09-.57-.53-.77-.17-.84.19-.81.51,1.25.66-.02.84-.63,1.08-.6,1.35,1.73.23.75,1.02.45,1.42.83,1.44,1.27,4.26,1.17,2.01,1.57-.56.39-1.17-.46-.8-1.18-.86-.5-3.87.39-1.6.83-1.62,1.1-.97,1.22.38v-.64h.46l.83.93.84,1.7,1.36,3.78.34-.19.84-.3.32-.2.56,1.2,1.07-.13,1.3-.67,1.3-.4,5.77-.57,3.59-1.72,1.16-.25.34-.18.95-.83.43-.26.75.04.68.29.69.13.87-.45.11.37.39-.37,2,.95,1.69-1.09,1.72-1.83,2.1-1.21v-.64l-.71-.56-.31.06-.52.49-.5-.69-1.41.65-2.45-.26-.63.31-1.87-.91-1.95.07-4.57,1.91-1.53.72-.24-.06.71-1.09-1.25-.88-2.21-3.6-.99-.61-1.81-.58-.72-.46-1.63-1.29-.89-1.55,1.06,1.07,1.29.99,1.98,1.23,1.14-.05v-.64l-.88-1.07-.93-.86-1.01-.69-1.17-.57.3-1.1.38-2.3.31-1.12-1.07-1.01-.67.32-.83.67-1.47.02.33-.96.21-.37-1.59-.56-.9-.12-1,.11.14-.43.18-1.05.14-.43-.95-.02-.69-.36-1.31-.95.51-.59.55-.43.64-.24h.78s-1.46-2.19-1.46-2.19l-.53-1.22-.49-1.7,1.35-.92,3.75-.81,2.14-1.5.4.16.27.33.11.18.12.1.82.13.71.02,1.67.76,1.02.33,1.09-.05-.46-1.28.72-.5.6-.59.56-.21.61.66.22-.73.05-.71-.09-.8-.18-.96-.5.7-1.47-2.62-.53-.64,2.95-1.28.45,2.01,1.23.24.78-1.22-.93-2.37,1.21-.39,1.13-.6.95-.73.69-.78,1.47,1,1.57-.99.56-1.48-1.56-.45,1.21-2.52v-1.05s-1.21-.97-1.21-.97l-1.25,1.12-.82.57-.85.21-1.36.02-.37-.29-.73-1.33-.37-.3-.91.29-.61.48-.54.09-.71-.86-.81.76-2.5,1.48-.94.26-.77-.39-1.13-1.72-1.09-.4-1.37-.94-.68-2.16.14-2.37,1.13-1.57v-.64l-.37.04-1.16-.04.93-1.12,1.66-1.26,1.82-1.04,1.39-.42.74-.81-.58-1.81-1.7-2.86-2.05-2.61-1.02-.79-2.27-1.18-.55-.29-1.42-1.09-1.01-1.18.09-.98-.59-1.88-.32-1.87-.57-1.45-1.26-.58-3.51.2-1.77-.14-1.45-.64.74-.75.43-1.9.54-.96.94-.39.68.41-.07.64-1.31.31v.59l.79-.03.68.29.58.49.49.6-.43-1.45.4-.74.8-.44.73-.53,1.28-1.95,7.73-5.89-.68-.54-.32-.1v-.59l.11-.64v-.56s-.11-.8-.11-.8l2.65-.2.98-.39.89-.7-.8-1.38,1.16-.92,4.23-1.35.28-.18v-.35s.11-.98.11-.98l1-3.58-.09-2.02-.45-1.31-1.13-.7-2.1-.21-1.67.71-1.34,1.27-1.4.62-1.82-1.31-10.26,1.88-15.35,2.81-1.64.68-.74.83h-.75s-3.21,1.83-3.21,1.83l-.57.42h-.88l-3.85-.7-.78.1-.95.49-.78.1-.66.8-.12.2-.22.48-.49-.18-.78-.65-5.76,1.45h-2.91s-2.83-1.45-2.83-1.45l-.31-2.06,1.82-4.94,1.15-4.67,2.74-2.67.62-2.2.5-5.21-.31-1.02-1.37-2.64-.31-1.23.11-.84.31-.32.34-.22.23-.56v-2.27l.37-2.48-.24-.85-1.12-.23.4-1.09,1.09-4.75-.05-.58-.39-1.87-.05-.86.2-.84.66-1.29.14-.79.3-.86,1.53-2.68.67-.67,3.89,1.33,1.15-.78,2.43-1.08.78-.48,3.08-3.11.65-1.08.21-.79.09-1.23.25-.59.05-.37-.07-.43v-.36s.24-.15.24-.15l.8.03.38-.1.31-.29.46-1.2.28-1.73-.04-1.81-.49-1.42.48-1.4.37-.59.5-.12.93.04,1.01-.2,1.91-.9,2.42-.66,1.36-1.17,3.23-4.3.65-.42.65-.23.99-.54.92-.75,7.81-9.59,1.53-1.24,3-.19,6.3.54,2.49-.6.8.23,1.91,1.08,4.16.37,1.6-.37,2.04-1.64,1.79-2.29,2.23-1.8,3.41-.16,2.48.49,2.8.11,1.62-.4,2.48-1.53,1.13-.04,1.2.94.75,1.38,1.09,2.92-1,.71h-.5l-.33-.41-.02-.05-.11.19-.53.27,3.15,3.43,4.04,2.7,4.33,1.92,5.18,1.27h2.04s.78-.16.78-.16l2.55-1.71,1.16-.26,2.04.47,1.76.83,1.67.35,1.77-1,1.48.66,2.2.18,1.98-.49,1.71-2.55,3.95-2.08,1.18-1.67-1.34-.05-3.64-1.25-1.07.66h-.64s-.28-.96-.28-.96l-.15-.95-.42-.27-.49-.07-.44-.37-.49-.77-.32-.4-.17-.55-.07-1.2-.22-.65-.55-.14h-.65l-.58-.22-2.38-2.39-.65-.95v-.59l.88-.39.71-.53,1.19-1.38.78-.41.64.41.6.15.72-1.18,1.39,1.8.1.28.65.11.21-.27.21-.37.69-.18,12.05,1.9,3.23,1.14,1.48,1.6-1.29,2.24-6.33,3.27-1.89,1.63.33,2.46,2.64.78,6.04-.57,6.16-2.3,17.22-.76,3.82.64,6.3-.24-.78.19-.62.34-.43.57-.21.85,2.97-1.11,3.35-.02,3.46.9,3.28,1.6.45-.58.27.12.27.35.5.11.64-.28.77-.76.58-.33,4.12-.67,1.11-.94,1.09-.61,1.41.2,2.49.76,2.2.12,2.07.47,1.02.48,1.71,1.08,1.26.46,1.3.19,5.65-.12,1.29-.28,1.03-.8.6-1.24.64-2.59.54-1.11.93.4,1.18-.06,1.27-.41,1.1-.59-1.31-1.6-1.61-1.47-1.72-1.09-1.62-.42h-3.99l-.62.31-1.61,1.35-.79.3-3.85-.91-6.44-4.04-3.96-.94,1.35-2.93,2.49-1.66,5.17-2.03,2.19-1.41,3.09-3.18,1.19-.51,21.54-2.03,3.04-1.04,2.96-1.68,1.51-1.19.53-.13.53.51.59.91.7.61.87-.41.66-.43.92-.38.81-.46.34-.7.28-.72.67-.49.83-.31.77-.16.74.14,1.19.58,1.07,1.14.48,1.8h.81s14.11-3.23,14.11-3.23l8.31-.42,2.65,1.22,1.5-.02,1.1-1.79-.74-2.21-2.85-.53-5.89.76-.5.16-.53.26-.63.22h-.82s-.84-.38-.84-.38l-1.46-1.35-.46-.29-1.17-.21-2.55-.92-1.48-.19-17.32.72-1.35.47-1.16.88-1.21.54-1.52-.56-.62-.82-.31-.89-.34-.71-.76-.27.28-.2.19-.2.22-.18.35-.14-.28-.96-.45-.68-.59-.5-.71-.42-.32.6-.68-.6-.61.56-.87.32-1.97.44v-.6l.7-.09.48-.38.24-.67.04-.96.7.47.3.25-.05-.42.06-.21.19-.07.28-.02-.81-1.24-1.45-1.75-.75-.55-.93-.68-1.5.27-1.4-1.37-4.13-1.95-1.5-1.23-1.51-1.91-1.48-1.25-4.02-2.17.29-.18.06-.05v-.11l.14-.38-.84-.37-.36-1.02-.27-1.32-.52-1.25,1.35-.75,1.47-1.66,1.18-2.02,1.01-3.69.87-1.4.18-1.17-1.57-1.15,1.72-2.67,2.73-3.06,2.89-2.06,2.21.38h.46l.72-.99,1.14-.13,13.7,2.56,14.53,3.43,19.39,2.9,18.4.5,2.07-.28,1.08-.48,1.71-1.25.99-.26.68-.56.53-1.12.5-.76.57.46.78-.79.89-1.5.82-.42.96.79,3,.64,2.43,1.89,24.02,5.8,2.42,2.14,1.14.72,6.22,1.17,18.77-.51,1.8-1.05.69-.2.9.05,1.56.44.8.11,2.99-.59.44.09.7.41.37.09.55-.17.16-.39.14-.45.43-.32,3.02-1.18,2.43-1.55,4.01-3.94,1.03-1.35.61-1.33.29-1.56.07-2.06.15-.87.69-1.93.15-1.17-.33-.54-1.38-.93-.24-.79.78-1.24,1.57-.59,3.35-.21.4-.41,1.18-1.82.41-.42.75-.17,10.97-4.29,15.51-10.38,8.88-4.38,2.65-2.11.71-.43,6.91-2.33,2.02-1.23,1.21-2.43,4.74-5.47.35-.5,1.1-2.16,2.46-.7,4-.2.14-.62.59-.21.77-.45.15-.68.21-.45.39-.2.34.22.66.94.25.17,1.28-.63,1.62-1.82,1.08-.95,5.03-2.67.85-.61.99-.49,1.06-.11,1.09.54.84-1.53,1.69-1.23,1.98-.43,1.71.88,1.18-.14,4.46-1.65,1.09-.58,1.09.11,2.06-.17,2.11-.49,1.25-.79.81.44,5.14-1.32,2.61-1.2,3.37-2.27,11.49-3.89,11.59-6.09,2.65-.16,5.36.98h7.75l1.66.29,3.66,1.37,15.59,1.57,1.32-.49,2.07.81,9.49-.81,23.91,3.41,8.33-2.44,2.71-.24,1.17.33,2.07,1.11,2.54.86,9.66.58,3.81-.44,3.81-1.16,1.21-.68,2.75-2.2,2.64-1.6,2.17-2.72,1.69-3.31.45-2.9,1.02.37,2.09.38.93.59.18-.62.31-.14.44.06.57-.03.52,1.17.78.84.51.68-.32.72v.61l2.71,2.2,1.67.72,2.14-.17.76-.48,1.18-1.27.79-.26,1.09.16.7.43,1.5,1.42v.67l-3.92-.48-1.83.22-1.52,1.24-.68,1.49-.63,2.16-.42,2.26-.07,1.83.48,1.51,1.98,3.66,2.19,2.9,3.92,3.36v.67h-1l.45,1.28.71,1.57.95,1.32,2.1,1.1,2.11,2.59,1.14.88,4.34,1.79,3.16.52,1.19.79,2.32,2.23,2.68,1.51,3.23,1.06,3.4.44,3.15-.29,1.54-.65,2.76-1.72,4.51-.79,7.71-3.29,1.75-.27,1.73-.58,2.99-2.44,1.6-.38v.67l-.31.6-.42.59-.57.5-.73.31.11,1.47-1.38,3.03.27,1.62h.54l.15-2.34.69-2.14.99-1.75,1.06-1.17.77-.64.36-.11,4.39,4.09v-1.34h.5l5.51,7.2,1.02,2.8v3.99l-.25.97-.64,1.6-.11.46-.06,3.19.28,1.48.78,1.68,3.24,4.08,1.89,1.31,2.34,4.63,1.2.98,3.66,1.97,2.08.52.39.45.19.74.05,1.01.24,1.15.62.49.81.25.82.4.41.47.73,1.15.36.38.73.27,1.37.19.63.53,1.35.56,1.83-.44,3.05-1.72,3.86-3.42.62-.91.23-.95,1.03-1.77.23-.61.15-.22.49-2.06-.14-.13.96-.85,1,.09,1.21.47,1.57.29h6.3l5.73,1.51,10.81,5.47,2.22,1.93,1.21,3.08.14,4.27.43,1.67,1.22.68,1.54.35,2.79,1.72,1.44.63,9.33-.12,2.62.73,1.69,1.58.81.46,1.53.49,1.71.17,1.27.39,1.76,2.02,1.25.96,2.99.96.27.54,1.71,1.87,1.46.55,2.91-.32,1.16.36.43-.53,1.02-.4.55-.4.53-.78.95-2.58.87-1.59,1.09-1.56,1.24-1.32,1.29-.88.64,1.58,1.21.91h1.4s1.24-1.1,1.24-1.1l.5.66,1.88-.32.09,6.06,1.28,1.65,3.76,1.86,1,.78.75.96,1.28,2.27,2.84-1.25,3.43.47,8.79,2.95,4.31.73,2.93,1.04,1.66.02,3.22-.89,1.39.31,3.18,2.83h1.48l2.78-.87,2.73.8,1.86.18.83-.68,5.52-.3,1.13-.78,2.68-2.66.96-.57,2.36-.73.89.07.45.4,1.13,1.6.51.57.72-.39,1.41-.02.77-.18.51-.42.62-.67.75-.61.86-.27,1.48-1.75.27-.57.34-.25,1.62-.58,5.1-1.08,1.21-.79,1.17-1.02,1.4-.48,8.34-.07,5.88-1.34.65-.41,1.85-1.57.86-.2,2.4.2,1.37.46,2.24,1.92,1.64.25,1.23-.43,1.98-1.28,1.47-.27.85-.3,3.92-2.34.44-.42.26-.39.42-.34.87-.24,4.58,1.11,1.04,1.06,1.85,2.46,4.34,3.83,2.77,1.61,2.89.57,1.47-.47,1.48-.73,1.45-.2,1.98,1.43.82.09,1.6-.12.65.22,4.35,3.48,1.29.62,1.4.29,1.18-.87,4.6-1.6,1.78-.18,4.19,3.94,2.11,1.44,2.94.56,1.22-.21,2.17-.91,1.68-.4,2.62-1.01,1.69-1.14,3.38-.94,11.95-7.93,2.54,1.13,2.15.24,2.06-.6,2.26-1.43,2.75-2.41.99-.29,2.26-.27,1.11-.39.9-.59,4.33-5.83,5.1-3.84.83-.32,1.1.19,3.12,1.14,1.84-.3,2.75-1.94,1.19-.47,1.53-.21,1.69-.58,1.64-.85,1.36-1,2.88-3.04,1.5-1.11,1.85-.43,1.89-.12,1.32-.43,6.87-5.64,1.85-.68,1.57-.87.78-.27,2.55-.34.94-.32,1.35-1.07,1.11-1.71.74-2.07.28-2.16.76-.48,4.27-3.82,1-1.83,7.77,3.28.93.18,2.18-.17,1.83-.84h.56s.1.39.1.39l-.08.73-.02.79.31.61.85.35,2.13.27.96.32,2.9,2.71.89.38.7-.41,2.93-2.51,2.28-3.29,1-.77,2.93-1.18,5.22,2,2.58-.82,1.06-.5,1.03-.15,1.03.17,1.04.47,2.29-.66,1.11.04,1.04.62,1.21,1.15,1.75.15,3.59-.21,12.79,5.01.96-.05.88-.05,1.52-1.01,2.19-3.31,1.58-1.68.73-1.57.69-3.97.75-1.64,1.46-1.13.1-.03.31-.1,1.43-.48,3.68-.31,10.21.88,1.39.67-.57.91-.24.98-.15.97-.3.87-.59.71-1.44,1.22-.61.97,1.87,1.12,1.39,1.53,1.37.45,1.79-2.07.98-.62.52.63.41,1.21.6,1.1.56.33,2.15.73.44.42.29.44.35.38.65.26.57.65,2.18,4.12,1.06,1.17,5.37,3.68,3.52,3.1,2.25,1.07,2.13.28.1.5-.98,1.4-1.07.93-3.95,2.03,1.98.63,1.61-.18,1.44.18,1.47,1.68,1.75,4.31,1.05.77,6.71-1.88,2.13-.15,2.3.62,1.99,1.17,1.97,1.84,1.04,2.29-.83,2.52ZM193.77,148.22l1.01,4.71.02,1.06.36.25.47.62.31.76-.12.68-.66.42-.74-.14-1.36-.58-1.2.05-.95.53-.62,1.33-.22,2.43.43,2.61,1.08,1.78,1.32,1.51,1.19,1.78,1.38,4.4.84,1.3,1.34,1.24.61.73.35,1.02.18.17.19.28.09.6-.18.37-.4-.03-.36.06-.05.61.54,1.53,1.01,1.78,1.18,1.48,2.08,1.23,1.07,1.42,1.55,2.56,4.01,3.82,11.05,6.97,15.8,6.8,22.44,10.78,7.23,1.64.39.15.17.22.2.2.47.09.56-.21.46-.91.5-.2,1.72.26,1.84.71,1.12,1.08-.68,2.42-.96,1.79-1.27,1.66-1.25.73-.84.28.18.64.59.76.43.8.46.69.14.15.36.27-.14.56-.31.47-.16.02-.27,1.91-.52,1.73-.68,1.49-.78,1.21-.6.49-1.29.42-.6.45-.57.85-.11.51.04.4.08.44.21.33v.53s-.44.54-.44.54l-.33.09-1.57-.13-.63-.54-.42-.08-.42.26-.64.88-.24.19-.8.21-1.33.9-2.9.61-.7.26-.42.33-.31.41-.46.36-.85.22-1.78-.09-.85-.3-.36-.6-.79-.72-1.82-.08-8.76,1.14-2.19-.92.61-3.04-.85-.91-.51-.31-.68-.16.51-2.2-.74-1.94-1.5-1.36-1.76-.45.37,1.41,1.58,1.64.58,1.63.02.98-.18,1.39-.49,1.35-.89.85-2.11-.3-3.78-3.89-1.85-.97-2.42-.43-5.06-1.86-2.53-.42h-2.49l-.59-.22-.8-.94-.61-.21-2.71.64-1.3.08-.5-.3-.69-.42-3.49,1.35-.54.33h-.71s-4.04,1.68-4.04,1.68l-1.08.28-1.25.67-1.15.84-.78.81-1.62,2.65-.48,1.25.11.77-1.31.4-5.88-.71-1.09-.74-1.03-.87-1.19-.73-2.86-.81-2.8-.16-15.58,2.27-2.26,1.34-1.57,3.23-1.83,7.73-1.59,2.94-6.86,6.78-3.13,5.53-6.54,4.85-.4.46-.76,1.15-.33.36-.78.27-1.76.24-2.01,1.31-3.4-.07-1.54.21-1.23,1.02-2.13,3-.85.63-1.91.27-1,.14-2.79.85-4.23,2.65-1.1,1.04-1.28.88-4.49.67-1.37.84-2.36,2.08-1,.42-.82.57-.66,2.85-.77,1.16-2.36,1.29-.49.72-.14,1.61-.45,1.55-1.1,1.28-4,3.69-.51.37-2.14.53-.96.79-1.54,1.58-.02.36-.36.36-1.91,2.31-1.32,1.08-1.67,1.04-1.73.77-1.51.3-.99.8.24,1.76.91,1.79,1.06.87-3.49,3.32-1.09.83-2.91,1.66-2.2,2.08-.9.56-3.87,1.35-.77.08-.69-.52.18-1.13.58-1.14.43-.52,1.19-.92.82-2.01.57-2.01.4-.92,3.29-4.62.89-3.43-.37-2.61-1.39-2.04-2.17-1.7.76-.63.24-.64-.32-.5-.93-.19-.34-.44.67-.91.96-.82.48-.14.83-.76,3.74-1.45,1.44-.05,1.09-1.93,3.62-2.35,3.43-2.87,4.3-1.6,3.22-2.78,2.08-1.34,2.27-1.05,1.99-.47,3.42.43,1.02-.43.99-1.07,1.53-2.41,1.06-1.18,1.71.86,2.34-.78,2.07-1.73.9-2.02-2.23-4.76-.58-.87-.72.12-4.84.77-1.71.84-.97.3h-4.98l-1.98.62-5.57,3.31-2.08-1.4-1.16-.43-1.21-.14-1,.37-1.15.67-1.13.39-1.95-.99-1.23.14-3.91,1.14-13.51-.08-1.9-.33-1.05-.61-.61-1.47-.46-1.76-.62-1.46.52-1.47-.2-2.1-.73-2.11-1.09-1.48.56-.15.23-.18,2.75.28,2.24-1.1,1.62-1.94.62-2.57,1.12-1.77,3.92-3.4-.51-1.06.05-.64.21-.33.72-.34-.26-.08-.19-.02-.1-.15.05-.46.66-.18.32-.22.08-.5v-1.01s.35.92.35.92l.09.4h.5l.52-.56.43-.88.6-1.92h.44l.26.54.38.44.51.29.62.1.97-.28-.05-.62-.44-.67-.21-.41.88-.9,2.08-.99,1.03-.8.73-.98-.21-.33-.71-.34-.76-.98-.21-.85.2-.62.63-.38,1.09-.13.62-.51.51-1.13-.06-1.13-1.94-.95-.63-1.02-1.02-2.18-.2-1.4,1.24-2.51-.52-.44-1.09-.32v-.79l1.36-2.14-.87-1.68-.23-1.72.32-1.88.77-2.12-1.13-1.68.81-.77,4.62-.47,1.24-.65,1.92-1.74,2.04-1.32.41-.46.18-.43.32-.32.77-.12,3.71-3.98.76.97,1.39.79,1.57.42,1.36-.14.94-.94.66-1.67.35-2.03-.02-2.06-.31-1.96-1.18-4.75-.36-3.62-.35-1.69-.78-1.4.45-.97-.28-2.53.32-1.16-.27-.55-.17-.65-.08-.72.02-.73-1.39,2.09-.72-.76-3.31-1.72-4.14-3.13.64-1.23.22-1.43-1.15-.3-1.28-.56-2.8-.72-1.97-1.84-1.3-.42-1.91.18-.74-1.04-.51-1.96.27-2.12,1.03-2.36,3.02-2.65,7.5.33,3.48-1.07.98-1.35.6-1.79.31-1.78.06-.71.05-.59.08-.51.31-.86.06-.55-.22-.33-.88-.56-.13-.39.3-.64.45-.46.54-.4,2.1-2.26,1.18-.85,1.3-.16,6.86,1.15,1.4-.16.75-.54,1.58-1.6.87-.26.68.34,1.35,1.18.8.22.6-.31.74-.63.88-.75.78-.49.8-.02.69.26h.67s.78-.78.78-.78l.76-.32,1.37.22.63-.17.81-.98.6-1.18.65-1.01,1.01-.43,1.41-.98,1.62-3.05,1.75-.89h.1s1.28.02,1.28.02l1.33.42,1.24.72,1.12.91.81-.07,1.63.07,1.77.47.32-.13.06-.35.19-.39,1.62-2.19.92-.74,1.59-.23,2.56.61,2.33,1.39,1.98,1.98,3.09,4.79,1.61,1.9,1.75,1.53,5.36,3.03,1.1.95,1.73,2.46.96.68,1.19-.52-1.01-.44.17-.22.45-.24.23-.21-.2-.14-.22-.12-.2-.15-.1-.23,1.56-.55.74-.49.6-.79.55.42h.38s.26-.48.26-.48l.18-.98,5.67-1.48,2.69.1,3.81,2.11,1,.34.95-.04.91-.36.21-.6-1.13-.7.16-.97v-1.33s.23-.99.23-.99l.29-.12.29-.04.29.04.3.12,1.39-.22.67.03,1.8.46,1.93.95,1,.31,3.57-.42,1.1.36,2.61.59ZM51.06,354.32l1.21-.67.43.92-.1,3.32-.49,1.43-1.16-.11-2.37-1.65-2.15-1.02-.98-.75-.41-1.15.58-.77,1.33-.28,2.61.02.45.09h.36l.32.13.37.49ZM47.54,322.99v1.96l-1.6.87-1.64.59-4.92.76-3.22,1.42-6.59,1.02-1.51-.11-1.76-.62-.87-.49-.36-.51-3-1.04v-.59l1.67-2.71,2.39-2.52,2.92-1.87,4.95-.94,6.3-2.36.92-.15.9.11.47.44.39.7.57.63,1.02.19v.65l-.19.8-.14,1.22.02,1.21.31.75-.64,1.49.72.37,1.32-.4,1.09-.87h.46ZM167.57,276.37l1.15-.32,2.12.33,1.85,1,.36,1.68-1.35,1.01-2.75.43-1.38.46-2.41,2.15-1.44.6-1.62-.72-.8-.04-1.44-.61-1.15-1.05.21-2.05-.5-.7-.42-.81.34-1.06.57-.66.52-.33.41.25.22,1.04,1.82-.92,1.88-.65,1.91-.02,1.91.99ZM166.66,294.93l.58-.05.28.28-.03.77-.8.16-1.03-.57-1.21-.28-1.35-.12-1.04-.72-.15-1.06.8-.7.61-1.21.59-.85,2.42,1.09.12.66-.39.85-.12,1.11.74.66Z"/></g><g id="Layer_3"><path class="cls-10" d="M189.93,261.21s21.96-4.07,23.18-4.07"/><path class="cls-7" d="M213.1,257.15c.39,0,2.82-.33,5.95-.77"/><path class="cls-9" d="M230.06,254.76c3.33-.5,5.82-.87,5.82-.87h15.45l9.35,1.22,20.74,10.57,6.75,2.2"/><line class="cls-7" x1="293.45" y1="269.6" x2="299.16" y2="271.46"/></g><g id="Layer_5"><line class="cls-2" x1="317.03" y1="274.21" x2="317.03" y2="272.21"/><line class="cls-4" x1="317.03" y1="268.24" x2="317.03" y2="31.95"/><line class="cls-2" x1="317.03" y1="29.97" x2="317.03" y2="27.97"/><line class="cls-2" x1="387.42" y1="274.21" x2="387.42" y2="272.21"/><line class="cls-4" x1="387.42" y1="268.24" x2="387.42" y2="31.95"/><line class="cls-2" x1="387.42" y1="29.97" x2="387.42" y2="27.97"/><line class="cls-2" x1="427.9" y1="274.21" x2="427.9" y2="272.21"/><line class="cls-4" x1="427.9" y1="268.24" x2="427.9" y2="31.95"/><line class="cls-2" x1="427.9" y1="29.97" x2="427.9" y2="27.97"/><line class="cls-2" x1="552.72" y1="260.07" x2="552.72" y2="258.07"/><line class="cls-3" x1="552.72" y1="254.07" x2="552.72" y2="31.97"/><line class="cls-2" x1="552.72" y1="29.97" x2="552.72" y2="27.97"/><line class="cls-2" x1="617.96" y1="247.59" x2="617.96" y2="245.59"/><line class="cls-8" x1="617.96" y1="241.53" x2="617.96" y2="32"/><line class="cls-2" x1="617.96" y1="29.97" x2="617.96" y2="27.97"/><line class="cls-2" x1="804.5" y1="274.21" x2="804.5" y2="272.21"/><line class="cls-4" x1="804.5" y1="268.24" x2="804.5" y2="31.95"/><line class="cls-2" x1="804.5" y1="29.97" x2="804.5" y2="27.97"/><line class="cls-2" x1="1066.49" y1="368.35" x2="1066.49" y2="366.35"/><line class="cls-11" x1="1066.49" y1="362.4" x2="1066.49" y2="31.95"/><line class="cls-2" x1="1066.49" y1="29.97" x2="1066.49" y2="27.97"/><g class="cls-15"><path class="cls-5" d="M1318.93,232.62l-.3,2.26.6,3.08,1.16,2.76,1.39,1.33,3.12.45,3.14,1.58,2.88,2.4,2.28,2.88.84,1.9.31,1.85.16,1.93.39,2.19.75,1.91,3.03,4.87.68,1.81.26,1.59.38,6.66-.21.78-1.52,2.71-.44.6.56,2.18-3.09,3.64-.97,1.98.08,2.3-.44-.35-.32-.13-.32-.07-.44-.16.23.39.12.29.2.69-1.73.21-1.58,1.1-2.5,2.98.3,1.26,1.55,1.74,2.95,2.53v.65l-.06.21-1.09,3.65-.62,1.07-.5,1.57.75,1.5,1.97,1.86,3.25,4.24,1.05,2.44.07.17-1.33,1.04.78,1.68,2.28,2.81.47,1.08-.71,1.23-3.3.72-1.01.95.94,2.75,3.34,1.85,6.68,1.91,7.98,4.42,8.78,1.5,1.16-.4,2.54-1.79,1.56-.41.72.19.93.9.62.21.76-.1,1.49-.44,2.09-.26,4.4-1.2h2.47l2.67.83,4.03,2.37,6.09,3.57,4.22,3.69,1.87,2.1.82,1.39.34,1.44.27.83.62.63,1.1.81.23.93.02,1.07.27.55.97-.6,2.64,3.06,1.35.83.37.05.81-.13.35.08.35.32.42.74,4.47,5.9,1.13,1.93.71,1.19.83,3.59.82,1.18-5.93-4.31-1.42-1.21-4.36-2.04-1-1.15-1.97-2.99-1.12-.79-1.8.53-7.75,6.4-.32,1.07.38,3.1-.14,1.13-.05.36-.43,1.22-2.42,4.88-.33,1.27-.14,1.55.14,1.33.25,1.22-.05,1.13-.73,1.12h-.01s-.36,2.12-.36,2.12l.26,1.78-.03,1.71-1.23,1.88-1.4,1.03-3.78,1.73-1.61.39-1.85-.16-5.04-2.51-1.75-.2-3.96,1.05-1.68.19-1.62-.2-1.14.03-1.09.4-1.49.93-.81,1.14.44,1.14,1.91,2.27v.04s.33.89.33.89l.43,2,.86,1.87-.02.7-.18.62.03.84.25.8.88,1.87.06.83-.51,1.71.08.81,1.88,1.45,3.25,1.71,2.81,2.01.6,2.31-1.45,2.85-.37,1.49.67,3.7-.7,1.12-1.18.99-1.03,1.75v.02l.4.65.23.64.31,1.45.44.67.66.51.55.58.05.85-.04.78.24.72.32.71.7,2.1,1,1.41,1.18,1.15,3.87,1.86.35,2.75-1.98,6.77-.29,1.87.14,1.18.36,1.12.37,1.69-.32.68-.63.64-.23.57.91.47,1.32.42.56.37.54.61.52,1.55-.02,1.93-.34,3.69.67,4.74-.09,1.6-.92,3.76v1.1s.22,2.36.22,2.36l-.05.86-.24,1.52.21.81.67.47,1.07.5,3.65.67,2.41-1.4.93-.2,1.14.44,1.03.88.9,1.26.56,1.46.03,1.48-1.64,2.37-2.64,2.07-2.05,2.34.31,4.45-.25,1.8-.45,1.82-.48,1.36-.54.73-1.3.55-.6.52-.1.81.59,1.74-.4.58-1.41.68-.96.76-.68,1.18-.6,1.94-.64,1.42-1.76,2-.67,1.33h0s-.62,1.2-.62,1.2l-.44,1.13-.13,1.18.37,1.3.06,1.17-.64.99-.75.95-.1.33-.21.7,1.28,2.02,2.54.41,4.73-.56.87.27,2.62,1.27.79.56.43.85.27,1.07.41,1.14.81,1.05.56.19.5-.18.48-.1.55.43.05.46-.29,1.47-.05.55.54,1.05,1.03.11,1.17-.41.93-.53,1.99-.23,2.04.94,1.82,1.59,2.68,3.29.17.86-.75,1.2-2.53,2.04-.6.81-.32,2.79,1.47,1.66,1.64,1.25.29,1.57-.66,1.85-.48,2.27-.14,2.28.39,1.88h0s.29,1.57.29,1.57l-.97,2.74.45,1.51.98.56,2.71.25,1.12.85,1.03,2.62.69.77,2.65-.4.66.83.43,1.3.61,1.24,4.2,2.7,1.65,1.94-.23,2.97-.86,1.12-1.01.59-.91.77-.51,1.64.23,1.84.69,1.56.45,1.55-.45,1.77-.9-1.58-1.46-.74-7.65-1.08-1.36.06-2.34,1.09-2.83,2.08-2.62,2.48-1.76,2.25-1.81,1.43-1.92,1.06-6.2,2.04-.58,1.03-.26,1.43-1.13,1.95h0s-.01.01-.01.01h0l-.67,1.53-.69.67-.9.07-3.03-.79-.66-.54-.47-.96-2.94-6.65-.54-1.89.05-1.95.63-1.86,1.22-1.59.93-.55.83-.16.72-.33.6-1.07.09-.89-.08-1.14-.37-2.01-.62-2.1-.86-1.58-1.19-1.23-1.64-1.07-7.03-2.93-1.39-.24-2.44-.41-3.3.53-2.67,2.3-2.16,3.15-2.23,2.58-3.91.71-1.31,1.35-.92.25-.54-.35-1.57-1.54-.72-.5-1.73-.44-1.9-.18-7.48.52-1.76-.23-1.85-.76-1.33-1.01-.6-.33-.94-.15-.9.15-1.8.69-.93.13-1.19-.49-3.39-2.79-2.97-1.5-.99-.77-1.92-1.5-.87-.18-1.35.21-.64.3-.68.7-.65.13-.61-.09-.51-.18-9.59-5.19-1.25-.36-2.27.21-2.93.79-2.8,1.19-1.86,1.42-3.11,1.07-2.94-.44-6.03-2.01-.63-.46-.32-1.58-.63-.48-.87-.11-.65.05-3.6,1.47-.48.33-.45.74-.15.64-.09.64-.28.72-9.15,13.39-.9,2.49-.25.5-1.17.52-6.28,1.06-4.18,1.39-3.26.38-.05-2.59-.14-1.29-.57-.55-.83-1.17,1.3-5.12-.48-1.17-.5-.26-2.49-2.01-.32-.49-.37-.9-.32-.49-.45-.14-.48.39-.46.51-.41.2-2.22-1.08-1-.17-.08-.39.12-.91-.09-1.06-.83-1-1.33,1.07-1.06.64-3.66,4.86-5.5,5.19-3.19,1.93-8.24,1.95-30.39,7.2-20.31.97-1.58-.43-3.26-1.34-17.41-3.52-13.68,2.03-3.61,1.39-9.76,5.43-3.35.98-1.67.09-1.59.32-1.55.6-1.47.91-9.65,6.5-5.2,3.5-2.73,1.28-2.74.51-2.62.9-7.25,4.37-15.65,5.9-23.6,4.53-14.74,2.83-3.92.16-11.21-3.79-3.81.27-1.61.48-11.86.57-5.13-.66-4.44-2.33-2.11-2.23-7.72-8.17-3.6-2.01-13.87-4.19-4.79-.61-2.5.26-4.89,1.91-7.07,4.52-1.32.84-2.04.56-11.69,5.39-12.09,2.59-4.43,1.97-10.74,6.94-3.04-.02-11.86-2.19-1.62.13-4.64,1.2-1.36-.18-1.2-.37-1.21-.1-1.37.62-1.13,1.15-.57.85-.68.2-1.44-.8-1.37-1.23-.27-1.04.63-2.92-.08-1.89-.57-1.17-2.22-2.07-1.12-1.05-1.37-.8-1.46-.57-1.39-.33-4.61-.3-13.43-4.68-.07-.03-.69-.09-.68.04.25,2.23-.82,1.76-1.19,1.61-.9,1.79-.32,2.02-.06,1.76-.25,1.79-.87,2.13-.99,3.84.05,4.04-.34,3.92-2.18,3.49-.31,1.36.19,1.5,1.38,4.92.38.68.51.45,1.15.52.35.26.35.6.2.62.08.68-.02.8-.47,1.36-.41.82-.33.02.74.73,2.41.25,1.19.47.84.99v.02s.72,1.38.72,1.38l.51,1.49.26,1.28.07,2.04-.42.75-5.16.99-1.39-.02-5.53-.86-1.34.21-.82.28-.26.58-.1.64-.35.51-.62.29h-.4l-.44-.14-2-.28-1-.34-.91-.65-.92-1.1-.84.86,1.05,1.23-.1.78-.6.6-.42.68-.14,1.33-.23,13.05.18,2.56-1.55.52-2.87-1.13-1.45.59v.02s-.62,3.18-.62,3.18l-1.16.28-1.76-.5-2.34.85-1.61,2.62-.44,6.36-.81,2.66-.17.03-1.23.22-4.24-3.1-2.16-1.01-2.28-.07-1.13-.27-.84-.74-.17-1.07.22-1.18-.02-1.16-.91-1.04-1.42.22-1.47.54-1.44.29-.7-.24h0s.83-1.25.83-1.25l3.16-5.59.78-.66-.09-1.58-1.97-6.26-5.12-8.51-1-1.34-.9-1.51-.82-2.8-1.03-1.18-1.18-1.09-.89-1.09-.82-2.04.1-1.45,1.98-2.97.62-.73.71-.47.78-.24.86-.07.37-.34.85-2.19.61-.63,1.28-.69.66-.53.35-.82.4-1.9.88-.58.34-.44.5-.44,2.87-1.03.62-.36,3.44-4.3.55-.96.77-.06,7.84-5.01,1.15-.27.76-.7.88-1.63.73-1.86.36-1.4-.04-1.15-.29-.86-.37-.8-.3-.97-.04-.63.04-5.73-.27-1.4-.71-1.56-4.31-6.16-2.51-2.54-2.69-1.95-2.8-.72-2.57.98-2.49,2.24-4.16,5.12-1,.82-1.21.33-.71.59-2.42,2.8-1.11.92-2.8.67-6.06.28-2.65.97-.84.85-.85,1.69-.8.56.28-.63.05-.44-.23-.37-.61-.43-.72,1.41-1.06,1.1-.68,1.1.47,1.41,1.1-1.51,1.63.5.21-1.47.42.13.27.24.18.36.17.45.34-.63.13-.64-.1-.64-.37-.58,1.03-.59.42.53.26.9.54.47.8-.27.71-.5.77-.29.96.37-4.3,2.01-2.01,1.55-1.16,2.09.14.99.98-.67,3.26-3.81.97-.63,1.13-.29-2.74,2.82-.42.77-.62,1.62-.46.71-.31.92v1.16s-.13,1-.13,1l-.57.42-.7.18-1.1.82-.69.18-2.35.18-.91-.18-2.29-2.13-.71-.35-1,.27-.64.61-.18.79.72.13.61.24,2.49,1.06-3.08-.85-3.16-.39-.61.19-1.75.96-.38.4-.26.67-.66.39-1.56.55-1.9,1.56-.14.3-.75-.41-1.14-1.73-.83-.4-1.03-.31-18.45-11.16-2.02-.71-2.33-1.61-1.45-.54-1.16-.11-.96.04h-.25s-1.16.26-1.16.26l-.99.44.16-.42.39-1.44-1.04-.51-2.99-3.22-5.97-3.17-.42.68-2.13-1.19-3.13.71-4.83,2.29-2.2.34-.83.34-2.22,1.25-.43.39-.71,1.71-.38.38-2.24,1.24-6.42,5.8-7.86,4.94-2.28,1.96-6.26,8.03-.64,1.37-.28.91-.69.58-1.51.7-2.59,2.68-2.53,1.42-.18,2.41.37,2.88-.15,2.42-1.47,1.17-2.23.46-2,.71-.77,1.92.4-.14.26-.25-.18.59-1.37,1.82-.61,1.13-.26,1.31-.06,1.07-.39.63-1.28.02v-.57l.69-1.63-.36-2.49-1.1-2.29-1.5-1-1.1-.37-.88-.63-.88-.22-1.14.9-1.3,2.22-.71.79-1.23.39.56.15.23.16.21.37-.8.75-1.07,1.9-.89.39-.72.12-2.49,1.06-.53.42-2.21,2.44-.36.96-.47,2.44-.41.64-.21-.56-1.82-2.86-.27-1.25-.68-.35-.96.2-1.04.44-1.7,1.51-1.64,2.17-1.59,1.56-1.59-.3,1-.56v-.67l-1.69-.19-3.12-.84-1.46-.2-1.57.31-2.59,1.34-1.07.25-2.82-.98-1.53-.2-1.35,1.61-1.6.21-3.25-.08-2.16.61-.84.07-.9-.22-1.56-.83-.75-.19-1.67.47-.92,1.15-.68,1.41-.99,1.28-.8.58h-.29s-.24-.28-.24-.28l-.68-.3-.93-.12-2.3.12-4.84-1.21-1.42-.07-4.68,2.56-.84.3-.62.98-3.86,3.05-3.15-.21-6.56-1.55-2.8-1.38-4.42-2.89-.28-.19-2.66-.25-1.31-.38-5.56-3.22-.75-.81-.54-1.07-1.28-.54-1.5-.42-1.17-.71-3.41-4.58-.61-.08-.32-.46-1.36-.93-.31-.53-.29-2.57-.21-.8-1.71-2.49-4.42-3.9-.89-2.61-.11-.74-.3-.64-.84-1.12-.82-1.41-.23-.3-.98-.41-.21-.04-1.28-2.81-.91-1.5-1.09-.65-4.46-4.55-.53-.28-.64-.11h-.83s-.8-.2-.8-.2l-.56-.4-.44-.42-.43-.24-2.93.12-1.47-.22-.62-.89-.83-.79-1.86-.69-2.03-.33-1.31.26-.68-.67-2.8-1.2-1.44-2.02-.93-.91-.9.11-1.52-.24-5.53-2.48-1.23-1.02-1.06-1.24-13.76-6.16-2.11-.39-.17-2.21-2.59-1.52-29.26-4.41-11.95.68-2.03-.56-1.54-.93-2.94-2.31-4.23,2.88-1.96,1.95-1.03,2.83-.96,1.6-.34.75v2.8l-.38,2.97.08,1.62.8,1.37v.57l-.57.76-.45.73-.31.93-.16,1.31.12,1.66.43.94.53.74.41,1.06.5-.62-.18,1.92-1.01,3.21.19,1.07-2.47,2.07-1.1,1.4-.88,3.22-1.59,2.48.07.8-.97,1.5.12,1.57.79,1.26,1.06.6-.55,1.29,1.88.67-1.04,1.31-1.96,1.7-.87,1.88h.5l.33-.41.05.03.13.22.53.15-.74.75-1.02.75-.89.85-.8,2.03-.97,1.17-2.1,1.85.13-3.81-.32-1.58-.85-.79-1.73.51-7.73-3.59-1.52-.06-5.49.93-.68.8-.27,1.33-.06,1.88h-.46l-.09-.57-.45-1.23-.46,1.73v.74l-1.03-.67.04.64-.04.65-2.74-.62-.54-.28-.56-.51-.71-.29-.97.4h1.54v.67l-4.92,2.63-1.1-.17-.88.52-.82-.05-.85-.29-.93-.18-.66.05-.36.18-.98,1-1.23.68-2.72.64-1.02.54.24.09.2.02.11.13-.05.44h-.7s-1.8.56-1.8.56v.62h1.5l-.99.99-1.04.79-1.15.53-1.3.21v-.67l.4-.3.21-.28.15-.31.23-.36-.95.14-.23.14-.32.39-.84-.93-.87-.3-.89.14-.89.41-.23.33-.05.4-.23.35-.78.15-.04.29-1.19,1.62-.3-1.85-2.5-1.2-.74-1.89.99.5.43-.5-.08-.82-.55-.42-3.72.56v-.56l.66-.38.71-.26.78-.11.8.07-1.58-.71-5.89.1-1.97-.46-4.55-2.63-.85.85-.38-.82-.26-2.5-.43.66-.28-.15-.27-.4-.46-.11-.75.32-.29.21-.17.25-.39.41-.37.55-.26.61-.31.53-.55.28-.64-.43-.45-.93-.39-.58-.52.65-4.45-4.22-.33-.31-.65-1.33-.96-1.14-4.35-1.41-1.21-1.53-1,.67-.28-1.19.07-.27.21-.39v-.67h-2.03l.54-.57-.84-.54-.48-.13h-.72s.37-.85.37-.85l.56-.57.72-.33.84-.11-.04-.42-.05-.08h-.11s-.25-.11-.25-.11l.43-1.66-.43-1.55-.94-1.2-1.09-.61v-.56l.96-.8.44-.26.64-.18v-.68l-.29-3.16-.39-1.55-.81.43h-.54l-.88-1.12-3.5,1.36-1.6-.24,1.34-.35.3-.88-.4-1.21-.8-1.34.41-.61.65-1.68.49-.87,1.03.91.9-.88.93-1.34,1.13-.5v.57l-.42.98.6.32.86-.25.46-.71-.17-.81-.39-.81-.5-.69-.44-.51-4.54-3.25-5.68-2.41-.74-.86-.52-1.3-1.19.9-1.35,1.67-.97.97v.56h.5v.62l-1.37.12-.59.17-.53.33-.26.76.19.83v.66s-.93.24-.93.24l.37.78.21.26.41.26-.49.62.74.84.26.4h.46l.42-.92.42-.71.15-.84-.45-1.26,1.29,1.2-.46,1.53-1.23,1.41-1.09.82.45.93-.8.48-1.25.1-.93-.21-.75-.84v-.82l.62-.63,1.12-.25v-.67l-1.25-.62-.75-.64-.74-.31-1.25.39-.37-2.41-2.65-1.85-3.26-.67-2.18,1.14h-.5l-.36-1.68-.78-.67-.97.35-.91,1.38-.52-.6-.93-2.51.66-1.24.3-1.81-.19-1.67-.77-.88-.04-.42.11-.11h.2l.23-.08-.14-.27-.15-.19v-.3s.3-.54.3-.54h-.5l-.34.84-.11.39-.05.69-.41-.37v-.11s-.18-.71-.18-.71l-.93-1.05-2.17-.36-1.59.92.25,2.24-.74-.63-.71-.19-.74-.07-.81-.3,1-.62v-.68h-1.64s-1.03-.24-1.03-.24l-.57-.89-.25-1.92.5.04.34-.07.16-.31-.08-.55-.19-.24-.18-.16-.1-.29-.15-.96-.34-.56-.33.05-.17.85-.65.82-1.46.46-2.11.24-.77.23.05.55.46.64.5.5.45.05.61-.2.7.04.74.73-.77,1.32-.56,1.35-.77.93-1.39.07-3.79-1.95-.73-.54h-.45l.3,1.43.15.49-1.92.12-.76-.25-.31-.79.32-.82.77-.39,1.9-.35v-.62l-.89-.6-1.03-.93-1.13-.56-1.16.53-1.02,1.49-.48,1.51.21,1.31,1.02.92-.33,2,2.9,2.21.48,2.07-.88-.61-1.15-.39-1.03.28-.48,1.41-.48-.28-.47-.4-.02.44-.09.29-.18.23-.3.28.36.13h.09s.14.49.14.49l-3.77,1.34-1.43,1.09-1.31,1.98-.99,2-1.4,2.25-1.7,1.38-1.93-.66-.28.58-.21.31-.32.17-.64.18.15.29.16.64.14.31-.88.39-.73.1-.55-.3-.33-.8-.74,1.27-.93.2-.96-.54-.85-.92.14-.28.21-.68.15-.28-.39-.28-.22-.28-.39-.62h5.49l1.42-.64.84-.9.72-1.07,1.04-1.17-1-1.24-1.41,1.34-.63.47v-.57l.71-.79.25-1.09-.24-1.08-.72-.77-.74-.5-.19.28-.07,1.13-.35.44-.78-.09-.84-.35-.52-.34-.64.28h-.83l-.72-.36-.3-.81.37-.34,2.61-.62-.5-.62,1.54.1.45-.1.34-.27.44-.44.31-.4-.05-.13,2.77-.2.72-.42-.27,1.47,1.07.09,1.15-.84.04-1.34-.69-.51-1.44-.15-.4-.57.14-.6.55-.51.85-.76.49-.68.25.63.3.4.95.9-.39-1.58-.11-1.88-.39-.79-.85-.21-.85.14-.64.43-1.25,1.97-1.6,1.07-.58-.1-.36-.97-1.07,1.09-2.84.85-1.07.61h-.5l-.37-1.13-.69.3-.9.88-1.07.56-.38-1.25-.51.11-.56.69-.54.45-.52-.31-.46-.63-.47-.16-.53,1.11h-.5l-.91-.78-1.28-.78-1.44-.3-1.36.62v-.62l-.86.44-.84-.05-.93-.25-1.14-.14-1.22.42-1.53,2.01-1.04.68v.62l.19.8-1,2.87-.14,1.99-2.42-1.23-1.32-.47-1.23-.22-1.31.17-1.08.3-.77-.07-.38-.95-4.98,1.81-.32.63-.31.44-.37.23-.34-.18-.9-.9-.53-.21-1.66-.31-.72-.03-.84.34-.17-1.11-.58-.61-.81-.06-.93.53.02-.39-.11-.12h-.2l-.26-.06.43-.57v-.55l-.34-.47-.6-.33v-.56l.91.38,1.2.29,1.23.03.93-.41.64-.94.3-1.46.82-1.04.81-.62.68-.16,1.78.16,5.36-.79,2.61.17,1.39-.41.4-.99.07-1.22.4-1.1,1.6-.43,3.34,2.02,1.04-.4,1.15.64,1.02-.07.95-.18.86.28,1.87-1.8.98-.5,6.38-.2.78-.32.47.59,1.17.56,1.48.37,1.41.06,2.55-.31,1.19.37,1.24,1.19.24-.95.45-.51,1.35-1.02-.46-1.1-.69-.55-1.01-.2-1.37-.03.5-.62.69.24.09-.53-.43-.87-.85-.76.33-.06.21-.13.21-.18.28-.2.54.28.56-.22.63-.42.77-.31v-.57l-1.45-1.5-.58-.84-.46-.83.96.68.54-.68-.43-.27-.2-.28-.15-.33-.26-.42.61.04,1.26-.1.62.05v-.56h-1.45v-.62l1.72-.03.7.17.52.48.46-.42.36-.11.34.15.37.38h.49l.74-.51,1.59.82.71-.31h.4l.14.68.45,1.19.21-.48.02-.19-.09-.17-.14-.47.23-.39-.02-.3-.28-.25-.51-.25v-.63l.68-.1.58.09.45.25.33.4,1.45-2.5.53-.62v-.68h-.99l.58-.88.4-.94,1.18.9,1.18.22.62-.51-.48-1.29,3.9-1.56,2.16-.5-.02-.58-.48-.65-.57-.45-.75-.19-9.51,1.44-3.51-.07-1.38.34.2.97v.67l-1.25-.67-7.76-1.25-.8.26-.91.8-.83.19-.8-.07-2.16-.51-1.83.14-5.95,1.97-.77-.3h-.46l-.11.39-.43.91-.55-.2-.74-.13-.85.04-.85.3-1.44-1.06-2.34-.02-2.33.81-1.41,1.46-1.35-.8-2.02-.83-1.69.15-.37,2.15-1.7-1.24-.76-.42-1.03-.21-2.22.26-.81-.26-.72-.69-1.31-1.96-.46-.48-1.09.05-1.13.94-.42-.64.14-.35h-.55l-.15.86-.84,2.26-.28-.49-.04-.16.12-.16.2-.5-.11-.1-.14-.02-.14-.09-.11-.36.32-.35.06-.09-.13-.18-.25-.62-.66.45-1.93.39-.9.4v.57l.3.99-.45,1.01-.87.81-1.02.37.35.9.2.35-.67-.19h-.37s-.51.19-.51.19l-.44-.68-1.29.32-.77-1.37-.39-2-.09-1.6-.36-1.52-.64-1.18-.27-1.33.75-1.93.63-.04,1.2-.51,1.29-.85.91-1.09-.51-.47-.61-.2-.66.14-.7.52-.28-.31-.12-.26-.14-.68.55.57.82-1.02,2.29.85,1.37-.4-.04-.65.16-.71.09-.82-.21-.99.78.23.52.52.25.8-.05,1.07h.49l.39-.98.53-.71.56-.19.52.57.21-.2.08-.13.04-.13.16-.22-.02,1.57.26.42.53-.07.77.06.59.41.42.41.53.15.95-.4-.17.25-.1.08-.11.06-.17.18,1.06,1.9,1.04.68,1.12-.28,1.91-1.37,1.53-.68.64-.54.77-.47,1.72.03.76-.41v-.69l-.96.16-.24.13-.33.39-.53-2.9-.56-1.51-.85-.65v-.68l3.42-.76.94.22-.88,1.86.81-.27.59-.41,1.1-1.26-1.14-.42-.42-.63.06-1.79.17-.4.92-.66.41-.48.21-.66.09-1.18.14-.66-.89-.62-.05-.06-.63-.15-.17.25-.04.37-.16.21-1.79-.07-.84.24-.36.74-.37,1.38-.93,1.24-1.16.64-1.07-.41,1.29-1.11.15-1.2-.81-.82h-1.64s-.23.36-.23.36l-.69.7-.73.4-.35-.55.19-.87.48-.87,1.34-1.67-.09-.72.36-.99.1-1.24-.82-1.5h-.55l-.3,2.58-1.63.92-2.03-.35-1.57-1.25-.59-2.03.59-1.87,1.35-1.47,1.7-.84-.87-1.39-1.41-.62h-.27s-1.23.06-1.23.06l-1.19.64-.66,1.19-.34,1.2-.75.78-1.78-.03v.68l1.07.72-.45.37-4.29.28-1.01.37-.84.77-.53-.71-.52-.38h-.49s-.45.4-.45.4l-.12-.67-.11-.29-.27-.29-.57.4-.2.06-.2-.18-.57-.29.72-.84.5-.91.14-.97-.32-1.04,1.12-.53.43-.1v-.63l-.64-1.78.37-4.18-1.27.37-.42-.54h-.49s-.53.41-.53.41l-.55.7.3-1.54.43-1.37.19-1.32-.43-1.41.27-.59-.29-.39-.28-.54.3-1.04,1.15.77.65-1.45.21-2.05-.27-1.04-1.07-.38-4.2-2.77-6.38-1.76-2.72-1.44.68-1.89,1.28-.36,4.9.36,1.59-.21,6.27-2.3.97-.69,1.69-2.16.52-1.4.28-2.07.08-1.99-.08-1.15-.56-.86-.68-.79-.45-1.08.14-1.75.25-.34.95-.83.36-.66.22-.86.14-.76-.05-.75-.31-.85,1.04-.93-.62-2.07-1.98-3.39-1.83.65h-2.67l-2.65-.47-1.8-.75-.38-.52-.26-.65-.42-.55-.74-.24-.59-.03-.57-.14-.42-.28-.17-.47-.23-1.43-.64-.47-2.11-.34-3.76-1.47-1.91-.2-2.3.46-1.29.52-.49.05-.36.31-.21.67-.3.67-.62.31-.59-.49-1.67-3.31.39-1.18-.07-1.36-.36-1.37-.46-1.21-.74-1.27-1.61-1.62-.68-.91-1.28.65-.33-1.14.16-2.74-.98-.9-1.14.1-1.26.5-1.39.3-4.56.03-.72.29-.95,6.02-.34-.26-.04-.08-.16-.25h-.46l.21,1.32v1.2l-.37.89-.88.4-.46-.4-.86-2.27-.67-1.14-.04,1.95-.75.15-.99-.76-1.42-1.57-.47-.77-.14-.93.28-1.3-2.01.52-1.83-1.54-1.78-1.98-1.8-.8.33,1.47.15.43h-.49l-.39-.57-1.6-1.62.12-.95.2-.82.02-.82-.34-.93h-.5l-.61,2.49-1.53.61-1.85-.63-2.37-2-.69-.42-3.79-1.19-.11-.6.42-1.44,1.94.85.8-1.28.69-1.69,1.59-.41v-.69l-1.37-.94-.2-1.7.58-1.01.99,1.12.12-.86.18-.37.28-.22.4-.39.3,1.13.05.99-.23.87-.62.82.37.29.37.18.45.09.59.02.56.16.14.37.11.43.46.3,1.06.08,1.05-.22.5-.61-.62-1.09v-.64l1.14.75.46.02.89-.13.85-.37,1.85-1.31.55-.28,1-.84.08-1.86-.66-1.93-1.21-1.03v-.69l1.85.88.89.98.64-.1,1.1-2.39-1.03-.63-1.79-1.65-1.49-.55-.96-.89-.71-.11-.65.39-.57,1.25-.51.27-1.41-.08.02-.39.66-.96.48-1.76-.28-1.12-2.21-3.33.45.63-.2-1.13-.9-2.82-.11-.56.07-.62-.84-3.52.02-1.32.15-1.38.38-1.07.71-.43,1.1-.19,1.6-.84.81-.19,1.94.16,1.82.47,1.61.78,1.31,1.09,2.48,2.71,1.19,1.71.36,1.44,1.69,2.71,1.84,2.39.64.63.49.37.41.5.4,1.04.15,1.03-.04.91.04.88.39.93-.48.4-.26.14-.29.09-.57-.53-.77-.17-.84.19-.81.51,1.25.66-.02.84-.63,1.08-.6,1.35,1.73.23.75,1.02.45,1.42.83,1.44,1.27,4.26,1.17,2.01,1.57-.56.39-1.17-.46-.8-1.18-.86-.5-3.87.39-1.6.83-1.62,1.1-.97,1.22.38v-.64h.46l.83.93.84,1.7,1.36,3.78.34-.19.84-.3.32-.2.56,1.2,1.07-.13,1.3-.67,1.3-.4,5.77-.57,3.59-1.72,1.16-.25.34-.18.95-.83.43-.26.75.04.68.29.69.13.87-.45.11.37.39-.37,2,.95,1.69-1.09,1.72-1.83,2.1-1.21v-.64l-.71-.56-.31.06-.52.49-.5-.69-1.41.65-2.45-.26-.63.31-1.87-.91-1.95.07-4.57,1.91-1.53.72-.24-.06.71-1.09-1.25-.88-2.21-3.6-.99-.61-1.81-.58-.72-.46-1.63-1.29-.89-1.55,1.06,1.07,1.29.99,1.98,1.23,1.14-.05v-.64l-.88-1.07-.93-.86-1.01-.69-1.17-.57.3-1.1.38-2.3.31-1.12-1.07-1.01-.67.32-.83.67-1.47.02.33-.96.21-.37-1.59-.56-.9-.12-1,.11.14-.43.18-1.05.14-.43-.95-.02-.69-.36-1.31-.95.51-.59.55-.43.64-.24h.78s-1.46-2.19-1.46-2.19l-.53-1.22-.49-1.7,1.35-.92,3.75-.81,2.14-1.5.4.16.27.33.11.18.12.1.82.13.71.02,1.67.76,1.02.33,1.09-.05-.46-1.28.72-.5.6-.59.56-.21.61.66.22-.73.05-.71-.09-.8-.18-.96-.5.7-1.47-2.62-.53-.64,2.95-1.28.45,2.01,1.23.24.78-1.22-.93-2.37,1.21-.39,1.13-.6.95-.73.69-.78,1.47,1,1.57-.99.56-1.48-1.56-.45,1.21-2.52v-1.05s-1.21-.97-1.21-.97l-1.25,1.12-.82.57-.85.21-1.36.02-.37-.29-.73-1.33-.37-.3-.91.29-.61.48-.54.09-.71-.86-.81.76-2.5,1.48-.94.26-.77-.39-1.13-1.72-1.09-.4-1.37-.94-.68-2.16.14-2.37,1.13-1.57v-.64l-.37.04-1.16-.04.93-1.12,1.66-1.26,1.82-1.04,1.39-.42.74-.81-.58-1.81-1.7-2.86-2.05-2.61-1.02-.79-2.27-1.18-.55-.29-1.42-1.09-1.01-1.18.09-.98-.59-1.88-.32-1.87-.57-1.45-1.26-.58-3.51.2-1.77-.14-1.45-.64.74-.75.43-1.9.54-.96.94-.39.68.41-.07.64-1.31.31v.59l.79-.03.68.29.58.49.49.6-.43-1.45.4-.74.8-.44.73-.53,1.28-1.95,7.73-5.89-.68-.54-.32-.1v-.59l.11-.64v-.56s-.11-.8-.11-.8l2.65-.2.98-.39.89-.7-.8-1.38,1.16-.92,4.23-1.35.28-.18v-.35s.11-.98.11-.98l1-3.58-.09-2.02-.45-1.31-1.13-.7-2.1-.21-1.67.71-1.34,1.27-1.4.62-1.82-1.31-10.26,1.88-15.35,2.81-1.64.68-.74.83h-.75s-3.21,1.83-3.21,1.83l-.57.42h-.88l-3.85-.7-.78.1-.95.49-.78.1-.66.8-.12.2-.22.48-.49-.18-.78-.65-5.76,1.45h-2.91s-2.83-1.45-2.83-1.45l-.31-2.06,1.82-4.94,1.15-4.67,2.74-2.67.62-2.2.5-5.21-.31-1.02-1.37-2.64-.31-1.23.11-.84.31-.32.34-.22.23-.56v-2.27l.37-2.48-.24-.85-1.12-.23.4-1.09,1.09-4.75-.05-.58-.39-1.87-.05-.86.2-.84.66-1.29.14-.79.3-.86,1.53-2.68.67-.67,3.89,1.33,1.15-.78,2.43-1.08.78-.48,3.08-3.11.65-1.08.21-.79.09-1.23.25-.59.05-.37-.07-.43v-.36s.24-.15.24-.15l.8.03.38-.1.31-.29.46-1.2.28-1.73-.04-1.81-.49-1.42.48-1.4.37-.59.5-.12.93.04,1.01-.2,1.91-.9,2.42-.66,1.36-1.17,3.23-4.3.65-.42.65-.23.99-.54.92-.75,7.81-9.59,1.53-1.24,3-.19,6.3.54,2.49-.6.8.23,1.91,1.08,4.16.37,1.6-.37,2.04-1.64,1.79-2.29,2.23-1.8,3.41-.16,2.48.49,2.8.11,1.62-.4,2.48-1.53,1.13-.04,1.2.94.75,1.38,1.09,2.92-1,.71h-.5l-.33-.41-.02-.05-.11.19-.53.27,3.15,3.43,4.04,2.7,4.33,1.92,5.18,1.27h2.04s.78-.16.78-.16l2.55-1.71,1.16-.26,2.04.47,1.76.83,1.67.35,1.77-1,1.48.66,2.2.18,1.98-.49,1.71-2.55,3.95-2.08,1.18-1.67-1.34-.05-3.64-1.25-1.07.66h-.64s-.28-.96-.28-.96l-.15-.95-.42-.27-.49-.07-.44-.37-.49-.77-.32-.4-.17-.55-.07-1.2-.22-.65-.55-.14h-.65l-.58-.22-2.38-2.39-.65-.95v-.59l.88-.39.71-.53,1.19-1.38.78-.41.64.41.6.15.72-1.18,1.39,1.8.1.28.65.11.21-.27.21-.37.69-.18,12.05,1.9,3.23,1.14,1.48,1.6-1.29,2.24-6.33,3.27-1.89,1.63.33,2.46,2.64.78,6.04-.57,6.16-2.3,17.22-.76,3.82.64,6.3-.24-.78.19-.62.34-.43.57-.21.85,2.97-1.11,3.35-.02,3.46.9,3.28,1.6.45-.58.27.12.27.35.5.11.64-.28.77-.76.58-.33,4.12-.67,1.11-.94,1.09-.61,1.41.2,2.49.76,2.2.12,2.07.47,1.02.48,1.71,1.08,1.26.46,1.3.19,5.65-.12,1.29-.28,1.03-.8.6-1.24.64-2.59.54-1.11.93.4,1.18-.06,1.27-.41,1.1-.59-1.31-1.6-1.61-1.47-1.72-1.09-1.62-.42h-3.99l-.62.31-1.61,1.35-.79.3-3.85-.91-6.44-4.04-3.96-.94,1.35-2.93,2.49-1.66,5.17-2.03,2.19-1.41,3.09-3.18,1.19-.51,21.54-2.03,3.04-1.04,2.96-1.68,1.51-1.19.53-.13.53.51.59.91.7.61.87-.41.66-.43.92-.38.81-.46.34-.7.28-.72.67-.49.83-.31.77-.16.74.14,1.19.58,1.07,1.14.48,1.8h.81s14.11-3.23,14.11-3.23l8.31-.42,2.65,1.22,1.5-.02,1.1-1.79-.74-2.21-2.85-.53-5.89.76-.5.16-.53.26-.63.22h-.82s-.84-.38-.84-.38l-1.46-1.35-.46-.29-1.17-.21-2.55-.92-1.48-.19-17.32.72-1.35.47-1.16.88-1.21.54-1.52-.56-.62-.82-.31-.89-.34-.71-.76-.27.28-.2.19-.2.22-.18.35-.14-.28-.96-.45-.68-.59-.5-.71-.42-.32.6-.68-.6-.61.56-.87.32-1.97.44v-.6l.7-.09.48-.38.24-.67.04-.96.7.47.3.25-.05-.42.06-.21.19-.07.28-.02-.81-1.24-1.45-1.75-.75-.55-.93-.68-1.5.27-1.4-1.37-4.13-1.95-1.5-1.23-1.51-1.91-1.48-1.25-4.02-2.17.29-.18.06-.05v-.11l.14-.38-.84-.37-.36-1.02-.27-1.32-.52-1.25,1.35-.75,1.47-1.66,1.18-2.02,1.01-3.69.87-1.4.18-1.17-1.57-1.15,1.72-2.67,2.73-3.06,2.89-2.06,2.21.38h.46l.72-.99,1.14-.13,13.7,2.56,14.53,3.43,19.39,2.9,18.4.5,2.07-.28,1.08-.48,1.71-1.25.99-.26.68-.56.53-1.12.5-.76.57.46.78-.79.89-1.5.82-.42.96.79,3,.64,2.43,1.89,24.02,5.8,2.42,2.14,1.14.72,6.22,1.17,18.77-.51,1.8-1.05.69-.2.9.05,1.56.44.8.11,2.99-.59.44.09.7.41.37.09.55-.17.16-.39.14-.45.43-.32,3.02-1.18,2.43-1.55,4.01-3.94,1.03-1.35.61-1.33.29-1.56.07-2.06.15-.87.69-1.93.15-1.17-.33-.54-1.38-.93-.24-.79.78-1.24,1.57-.59,3.35-.21.4-.41,1.18-1.82.41-.42.75-.17,10.97-4.29,15.51-10.38,8.88-4.38,2.65-2.11.71-.43,6.91-2.33,2.02-1.23,1.21-2.43,4.74-5.47.35-.5,1.1-2.16,2.46-.7,4-.2.14-.62.59-.21.77-.45.15-.68.21-.45.39-.2.34.22.66.94.25.17,1.28-.63,1.62-1.82,1.08-.95,5.03-2.67.85-.61.99-.49,1.06-.11,1.09.54.84-1.53,1.69-1.23,1.98-.43,1.71.88,1.18-.14,4.46-1.65,1.09-.58,1.09.11,2.06-.17,2.11-.49,1.25-.79.81.44,5.14-1.32,2.61-1.2,3.37-2.27,11.49-3.89,11.59-6.09,2.65-.16,5.36.98h7.75l1.66.29,3.66,1.37,15.59,1.57,1.32-.49,2.07.81,9.49-.81,23.91,3.41,8.33-2.44,2.71-.24,1.17.33,2.07,1.11,2.54.86,9.66.58,3.81-.44,3.81-1.16,1.21-.68,2.75-2.2,2.64-1.6,2.17-2.72,1.69-3.31.45-2.9,1.02.37,2.09.38.93.59.18-.62.31-.14.44.06.57-.03.52,1.17.78.84.51.68-.32.72v.61l2.71,2.2,1.67.72,2.14-.17.76-.48,1.18-1.27.79-.26,1.09.16.7.43,1.5,1.42v.67l-3.92-.48-1.83.22-1.52,1.24-.68,1.49-.63,2.16-.42,2.26-.07,1.83.48,1.51,1.98,3.66,2.19,2.9,3.92,3.36v.67h-1l.45,1.28.71,1.57.95,1.32,2.1,1.1,2.11,2.59,1.14.88,4.34,1.79,3.16.52,1.19.79,2.32,2.23,2.68,1.51,3.23,1.06,3.4.44,3.15-.29,1.54-.65,2.76-1.72,4.51-.79,7.71-3.29,1.75-.27,1.73-.58,2.99-2.44,1.6-.38v.67l-.31.6-.42.59-.57.5-.73.31.11,1.47-1.38,3.03.27,1.62h.54l.15-2.34.69-2.14.99-1.75,1.06-1.17.77-.64.36-.11,4.39,4.09v-1.34h.5l5.51,7.2,1.02,2.8v3.99l-.25.97-.64,1.6-.11.46-.06,3.19.28,1.48.78,1.68,3.24,4.08,1.89,1.31,2.34,4.63,1.2.98,3.66,1.97,2.08.52.39.45.19.74.05,1.01.24,1.15.62.49.81.25.82.4.41.47.73,1.15.36.38.73.27,1.37.19.63.53,1.35.56,1.83-.44,3.05-1.72,3.86-3.42.62-.91.23-.95,1.03-1.77.23-.61.15-.22.49-2.06-.14-.13.96-.85,1,.09,1.21.47,1.57.29h6.3l5.73,1.51,10.81,5.47,2.22,1.93,1.21,3.08.14,4.27.43,1.67,1.22.68,1.54.35,2.79,1.72,1.44.63,9.33-.12,2.62.73,1.69,1.58.81.46,1.53.49,1.71.17,1.27.39,1.76,2.02,1.25.96,2.99.96.27.54,1.71,1.87,1.46.55,2.91-.32,1.16.36.43-.53,1.02-.4.55-.4.53-.78.95-2.58.87-1.59,1.09-1.56,1.24-1.32,1.29-.88.64,1.58,1.21.91h1.4s1.24-1.1,1.24-1.1l.5.66,1.88-.32.09,6.06,1.28,1.65,3.76,1.86,1,.78.75.96,1.28,2.27,2.84-1.25,3.43.47,8.79,2.95,4.31.73,2.93,1.04,1.66.02,3.22-.89,1.39.31,3.18,2.83h1.48l2.78-.87,2.73.8,1.86.18.83-.68,5.52-.3,1.13-.78,2.68-2.66.96-.57,2.36-.73.89.07.45.4,1.13,1.6.51.57.72-.39,1.41-.02.77-.18.51-.42.62-.67.75-.61.86-.27,1.48-1.75.27-.57.34-.25,1.62-.58,5.1-1.08,1.21-.79,1.17-1.02,1.4-.48,8.34-.07,5.88-1.34.65-.41,1.85-1.57.86-.2,2.4.2,1.37.46,2.24,1.92,1.64.25,1.23-.43,1.98-1.28,1.47-.27.85-.3,3.92-2.34.44-.42.26-.39.42-.34.87-.24,4.58,1.11,1.04,1.06,1.85,2.46,4.34,3.83,2.77,1.61,2.89.57,1.47-.47,1.48-.73,1.45-.2,1.98,1.43.82.09,1.6-.12.65.22,4.35,3.48,1.29.62,1.4.29,1.18-.87,4.6-1.6,1.78-.18,4.19,3.94,2.11,1.44,2.94.56,1.22-.21,2.17-.91,1.68-.4,2.62-1.01,1.69-1.14,3.38-.94,11.95-7.93,2.54,1.13,2.15.24,2.06-.6,2.26-1.43,2.75-2.41.99-.29,2.26-.27,1.11-.39.9-.59,4.33-5.83,5.1-3.84.83-.32,1.1.19,3.12,1.14,1.84-.3,2.75-1.94,1.19-.47,1.53-.21,1.69-.58,1.64-.85,1.36-1,2.88-3.04,1.5-1.11,1.85-.43,1.89-.12,1.32-.43,6.87-5.64,1.85-.68,1.57-.87.78-.27,2.55-.34.94-.32,1.35-1.07,1.11-1.71.74-2.07.28-2.16.76-.48,4.27-3.82,1-1.83,7.77,3.28.93.18,2.18-.17,1.83-.84h.56s.1.39.1.39l-.08.73-.02.79.31.61.85.35,2.13.27.96.32,2.9,2.71.89.38.7-.41,2.93-2.51,2.28-3.29,1-.77,2.93-1.18,5.22,2,2.58-.82,1.06-.5,1.03-.15,1.03.17,1.04.47,2.29-.66,1.11.04,1.04.62,1.21,1.15,1.75.15,3.59-.21,12.79,5.01.96-.05.88-.05,1.52-1.01,2.19-3.31,1.58-1.68.73-1.57.69-3.97.75-1.64,1.46-1.13.1-.03.31-.1,1.43-.48,3.68-.31,10.21.88,1.39.67-.57.91-.24.98-.15.97-.3.87-.59.71-1.44,1.22-.61.97,1.87,1.12,1.39,1.53,1.37.45,1.79-2.07.98-.62.52.63.41,1.21.6,1.1.56.33,2.15.73.44.42.29.44.35.38.65.26.57.65,2.18,4.12,1.06,1.17,5.37,3.68,3.52,3.1,2.25,1.07,2.13.28.1.5-.98,1.4-1.07.93-3.95,2.03,1.98.63,1.61-.18,1.44.18,1.47,1.68,1.75,4.31,1.05.77,6.71-1.88,2.13-.15,2.3.62,1.99,1.17,1.97,1.84,1.04,2.29-.83,2.52ZM193.77,148.22l1.01,4.71.02,1.06.36.25.47.62.31.76-.12.68-.66.42-.74-.14-1.36-.58-1.2.05-.95.53-.62,1.33-.22,2.43.43,2.61,1.08,1.78,1.32,1.51,1.19,1.78,1.38,4.4.84,1.3,1.34,1.24.61.73.35,1.02.18.17.19.28.09.6-.18.37-.4-.03-.36.06-.05.61.54,1.53,1.01,1.78,1.18,1.48,2.08,1.23,1.07,1.42,1.55,2.56,4.01,3.82,11.05,6.97,15.8,6.8,22.44,10.78,7.23,1.64.39.15.17.22.2.2.47.09.56-.21.46-.91.5-.2,1.72.26,1.84.71,1.12,1.08-.68,2.42-.96,1.79-1.27,1.66-1.25.73-.84.28.18.64.59.76.43.8.46.69.14.15.36.27-.14.56-.31.47-.16.02-.27,1.91-.52,1.73-.68,1.49-.78,1.21-.6.49-1.29.42-.6.45-.57.85-.11.51.04.4.08.44.21.33v.53s-.44.54-.44.54l-.33.09-1.57-.13-.63-.54-.42-.08-.42.26-.64.88-.24.19-.8.21-1.33.9-2.9.61-.7.26-.42.33-.31.41-.46.36-.85.22-1.78-.09-.85-.3-.36-.6-.79-.72-1.82-.08-8.76,1.14-2.19-.92.61-3.04-.85-.91-.51-.31-.68-.16.51-2.2-.74-1.94-1.5-1.36-1.76-.45.37,1.41,1.58,1.64.58,1.63.02.98-.18,1.39-.49,1.35-.89.85-2.11-.3-3.78-3.89-1.85-.97-2.42-.43-5.06-1.86-2.53-.42h-2.49l-.59-.22-.8-.94-.61-.21-2.71.64-1.3.08-.5-.3-.69-.42-3.49,1.35-.54.33h-.71s-4.04,1.68-4.04,1.68l-1.08.28-1.25.67-1.15.84-.78.81-1.62,2.65-.48,1.25.11.77-1.31.4-5.88-.71-1.09-.74-1.03-.87-1.19-.73-2.86-.81-2.8-.16-15.58,2.27-2.26,1.34-1.57,3.23-1.83,7.73-1.59,2.94-6.86,6.78-3.13,5.53-6.54,4.85-.4.46-.76,1.15-.33.36-.78.27-1.76.24-2.01,1.31-3.4-.07-1.54.21-1.23,1.02-2.13,3-.85.63-1.91.27-1,.14-2.79.85-4.23,2.65-1.1,1.04-1.28.88-4.49.67-1.37.84-2.36,2.08-1,.42-.82.57-.66,2.85-.77,1.16-2.36,1.29-.49.72-.14,1.61-.45,1.55-1.1,1.28-4,3.69-.51.37-2.14.53-.96.79-1.54,1.58-.02.36-.36.36-1.91,2.31-1.32,1.08-1.67,1.04-1.73.77-1.51.3-.99.8.24,1.76.91,1.79,1.06.87-3.49,3.32-1.09.83-2.91,1.66-2.2,2.08-.9.56-3.87,1.35-.77.08-.69-.52.18-1.13.58-1.14.43-.52,1.19-.92.82-2.01.57-2.01.4-.92,3.29-4.62.89-3.43-.37-2.61-1.39-2.04-2.17-1.7.76-.63.24-.64-.32-.5-.93-.19-.34-.44.67-.91.96-.82.48-.14.83-.76,3.74-1.45,1.44-.05,1.09-1.93,3.62-2.35,3.43-2.87,4.3-1.6,3.22-2.78,2.08-1.34,2.27-1.05,1.99-.47,3.42.43,1.02-.43.99-1.07,1.53-2.41,1.06-1.18,1.71.86,2.34-.78,2.07-1.73.9-2.02-2.23-4.76-.58-.87-.72.12-4.84.77-1.71.84-.97.3h-4.98l-1.98.62-5.57,3.31-2.08-1.4-1.16-.43-1.21-.14-1,.37-1.15.67-1.13.39-1.95-.99-1.23.14-3.91,1.14-13.51-.08-1.9-.33-1.05-.61-.61-1.47-.46-1.76-.62-1.46.52-1.47-.2-2.1-.73-2.11-1.09-1.48.56-.15.23-.18,2.75.28,2.24-1.1,1.62-1.94.62-2.57,1.12-1.77,3.92-3.4-.51-1.06.05-.64.21-.33.72-.34-.26-.08-.19-.02-.1-.15.05-.46.66-.18.32-.22.08-.5v-1.01s.35.92.35.92l.09.4h.5l.52-.56.43-.88.6-1.92h.44l.26.54.38.44.51.29.62.1.97-.28-.05-.62-.44-.67-.21-.41.88-.9,2.08-.99,1.03-.8.73-.98-.21-.33-.71-.34-.76-.98-.21-.85.2-.62.63-.38,1.09-.13.62-.51.51-1.13-.06-1.13-1.94-.95-.63-1.02-1.02-2.18-.2-1.4,1.24-2.51-.52-.44-1.09-.32v-.79l1.36-2.14-.87-1.68-.23-1.72.32-1.88.77-2.12-1.13-1.68.81-.77,4.62-.47,1.24-.65,1.92-1.74,2.04-1.32.41-.46.18-.43.32-.32.77-.12,3.71-3.98.76.97,1.39.79,1.57.42,1.36-.14.94-.94.66-1.67.35-2.03-.02-2.06-.31-1.96-1.18-4.75-.36-3.62-.35-1.69-.78-1.4.45-.97-.28-2.53.32-1.16-.27-.55-.17-.65-.08-.72.02-.73-1.39,2.09-.72-.76-3.31-1.72-4.14-3.13.64-1.23.22-1.43-1.15-.3-1.28-.56-2.8-.72-1.97-1.84-1.3-.42-1.91.18-.74-1.04-.51-1.96.27-2.12,1.03-2.36,3.02-2.65,7.5.33,3.48-1.07.98-1.35.6-1.79.31-1.78.06-.71.05-.59.08-.51.31-.86.06-.55-.22-.33-.88-.56-.13-.39.3-.64.45-.46.54-.4,2.1-2.26,1.18-.85,1.3-.16,6.86,1.15,1.4-.16.75-.54,1.58-1.6.87-.26.68.34,1.35,1.18.8.22.6-.31.74-.63.88-.75.78-.49.8-.02.69.26h.67s.78-.78.78-.78l.76-.32,1.37.22.63-.17.81-.98.6-1.18.65-1.01,1.01-.43,1.41-.98,1.62-3.05,1.75-.89h.1s1.28.02,1.28.02l1.33.42,1.24.72,1.12.91.81-.07,1.63.07,1.77.47.32-.13.06-.35.19-.39,1.62-2.19.92-.74,1.59-.23,2.56.61,2.33,1.39,1.98,1.98,3.09,4.79,1.61,1.9,1.75,1.53,5.36,3.03,1.1.95,1.73,2.46.96.68,1.19-.52-1.01-.44.17-.22.45-.24.23-.21-.2-.14-.22-.12-.2-.15-.1-.23,1.56-.55.74-.49.6-.79.55.42h.38s.26-.48.26-.48l.18-.98,5.67-1.48,2.69.1,3.81,2.11,1,.34.95-.04.91-.36.21-.6-1.13-.7.16-.97v-1.33s.23-.99.23-.99l.29-.12.29-.04.29.04.3.12,1.39-.22.67.03,1.8.46,1.93.95,1,.31,3.57-.42,1.1.36,2.61.59ZM51.06,354.32l1.21-.67.43.92-.1,3.32-.49,1.43-1.16-.11-2.37-1.65-2.15-1.02-.98-.75-.41-1.15.58-.77,1.33-.28,2.61.02.45.09h.36l.32.13.37.49ZM47.54,322.99v1.96l-1.6.87-1.64.59-4.92.76-3.22,1.42-6.59,1.02-1.51-.11-1.76-.62-.87-.49-.36-.51-3-1.04v-.59l1.67-2.71,2.39-2.52,2.92-1.87,4.95-.94,6.3-2.36.92-.15.9.11.47.44.39.7.57.63,1.02.19v.65l-.19.8-.14,1.22.02,1.21.31.75-.64,1.49.72.37,1.32-.4,1.09-.87h.46ZM167.57,276.37l1.15-.32,2.12.33,1.85,1,.36,1.68-1.35,1.01-2.75.43-1.38.46-2.41,2.15-1.44.6-1.62-.72-.8-.04-1.44-.61-1.15-1.05.21-2.05-.5-.7-.42-.81.34-1.06.57-.66.52-.33.41.25.22,1.04,1.82-.92,1.88-.65,1.91-.02,1.91.99ZM166.66,294.93l.58-.05.28.28-.03.77-.8.16-1.03-.57-1.21-.28-1.35-.12-1.04-.72-.15-1.06.8-.7.61-1.21.59-.85,2.42,1.09.12.66-.39.85-.12,1.11.74.66Z"/></g><path class="cls-10" d="M299.16,271.46l21.29-1.96,18.31.66,30.91-1.63,8.13,1.22,8.13.41,14.64,2.03,18.71-6.1,14.23-.81,16.67-.81,14.64,2.85,10.57,2.03,15.61-1.19,26.68-3.18,40.02-7.62,33.03-6.35,14.61-1.27,17.79-1.91s32.4-1.27,34.3-1.27,24.14-1.91,24.14-1.91l10.16-3.18s15.88.64,18.42,1.27,15.25,3.18,17.15,3.18,18.42,7.62,18.42,7.62l20.96,5.72,37.48,12.7,34.3,15.25,48.46,14.01,26.35,8.78,33.67,16.1,90.76,28.55,50.51,22.69,24.89,16.1,27.08,10.98s25.62,2.2,30.01,4.39,32.41,14.2,32.41,14.2l18.1,4.1"/><g id="EAF"><polyline class="cls-6" points="770.59 732.03 793.99 690.27 808.72 657.35 825.18 614.78 836.45 604.34 854.65 578.64"/><polyline class="cls-6" points="862.27 578.33 892.71 563.97 929.24 543.96 942.52 533.71 962.45 527.04"/><path class="cls-6" d="M965.53,522.15l8.61-2.66,14.35-2.66,36.16-12.23,21.23-2.13,39.6-7.98,13.77-4.79,24.68-11.17s29.84,2.66,32.71,2.13,17.79-7.98,17.79-7.98l6.31-9.04,9.18-7.45,9.76-11.17,18.94-13.3"/></g></g><g id="Layer_1"><path class="cls-13" d="M535.88,303.38l-1.96.27-4.95-7.46-.11.02-.28,8.2-2.25.32.43-12.17,1.98-.28,4.91,7.43.11-.02.28-8.16,2.25-.32-.42,12.17Z"/><path class="cls-13" d="M543.66,296.34l.07-1.78c.03-.99.24-1.86.63-2.6s.92-1.34,1.6-1.8,1.47-.75,2.38-.88c.96-.13,1.83-.07,2.61.2.78.27,1.43.72,1.94,1.35s.83,1.44.97,2.41c.03.19.05.4.07.65.02.25.02.5.01.75l-.08,1.79c-.07,1.48-.49,2.68-1.27,3.6s-1.93,1.49-3.44,1.7c-.91.13-1.75.06-2.52-.19-.77-.25-1.4-.69-1.91-1.31-.51-.62-.83-1.4-.96-2.35-.03-.24-.06-.49-.08-.76-.02-.27-.03-.54-.02-.79ZM546.12,294.63l-.07,1.48c0,.2,0,.4,0,.6,0,.2.03.41.06.63.08.54.24,1,.5,1.38.26.38.59.66,1.01.83s.9.22,1.45.14c.49-.07.91-.24,1.26-.51s.63-.66.82-1.15c.2-.49.31-1.09.33-1.79l.06-1.55c0-.19,0-.39-.02-.61s-.04-.38-.05-.48c-.08-.53-.24-.99-.5-1.37-.26-.38-.59-.65-1.01-.83-.42-.17-.89-.22-1.43-.14-.68.1-1.25.41-1.69.94-.44.53-.68,1.34-.73,2.41Z"/><path class="cls-13" d="M563.63,299.49l-2.37.33.43-12.18,4.47-.63c1.19-.17,2.15,0,2.88.49.73.5,1.16,1.24,1.3,2.24.01.1.03.21.04.32.01.11.01.22,0,.31.03.85-.17,1.6-.58,2.23-.41.63-.97,1.12-1.66,1.46l2.24,4.48-2.47.35-2.02-4.19c-.08.02-.15.03-.24.04s-.18.02-.27.04l-1.59.22-.16,4.49ZM565.85,288.95l-1.85.26-.15,3.94,1.84-.26c.56-.08,1.01-.22,1.34-.44.33-.21.57-.47.72-.77.15-.3.22-.63.22-.98,0-.07,0-.15,0-.23,0-.08-.01-.16-.02-.23-.05-.34-.16-.61-.34-.82-.18-.21-.42-.35-.71-.43-.29-.08-.64-.09-1.04-.04Z"/><path class="cls-13" d="M582.38,296.85l-2.36.33.36-10.16-3.36.47.07-2.02,9.07-1.27-.06,2.01-3.36.47-.36,10.16Z"/><path class="cls-13" d="M594.94,295.27l-2.38.21,1.05-12.14,2.37-.21-.41,4.93,4.99-.44.42-4.93,2.38-.21-1.04,12.14-2.38.21.46-5.21-5,.44-.46,5.21Z"/><path class="cls-13" d="M636.73,291.57l5.02-12.49,2.84-.25,2.95,11.78-2.52.22-.67-3.05-3.96.35-1.21,3.21-2.45.22ZM643.02,281.28h-.14s-1.85,5.02-1.85,5.02l2.99-.26-.99-4.76Z"/><path class="cls-13" d="M664.11,289.14l-1.97.17-4.56-7.71h-.11s-.7,8.18-.7,8.18l-2.26.2,1.05-12.14,2-.18,4.53,7.67h.11s.7-8.15.7-8.15l2.26-.2-1.04,12.14Z"/><path class="cls-13" d="M671.07,288.53l5.02-12.49,2.84-.25,2.95,11.78-2.52.22-.67-3.05-3.96.35-1.21,3.21-2.45.22ZM677.37,278.24h-.14s-1.85,5.02-1.85,5.02l2.99-.26-.99-4.76Z"/><path class="cls-13" d="M692.7,286.62l-2.37.21.88-10.13-3.38.3.18-2.01,9.12-.81-.17,2.01-3.38.3-.88,10.13Z"/><path class="cls-13" d="M703.95,281.08l.66-1.66c.36-.92.85-1.67,1.47-2.24.62-.57,1.32-.95,2.11-1.16s1.64-.21,2.54-.03c.95.19,1.75.55,2.39,1.06s1.11,1.16,1.37,1.92c.27.77.3,1.63.11,2.6-.04.18-.09.39-.15.63-.06.24-.14.48-.24.71l-.67,1.67c-.56,1.37-1.36,2.36-2.41,2.97-1.05.61-2.32.76-3.81.45-.9-.18-1.67-.52-2.31-1.02-.64-.5-1.09-1.12-1.37-1.87s-.31-1.6-.12-2.54c.05-.24.11-.49.18-.75.07-.26.15-.51.25-.75ZM706.84,280.29l-.56,1.38c-.07.19-.14.38-.2.57-.06.19-.11.4-.16.61-.11.53-.11,1.02,0,1.47.12.45.34.82.67,1.12s.77.51,1.32.62c.48.1.94.08,1.36-.06.42-.14.81-.41,1.16-.8.35-.39.66-.92.92-1.58l.57-1.44c.07-.18.13-.37.19-.58.05-.21.09-.37.11-.47.11-.53.1-1.01-.01-1.46s-.34-.81-.67-1.12c-.33-.3-.77-.51-1.3-.62-.68-.14-1.31-.03-1.91.32-.59.35-1.09,1.03-1.49,2.03Z"/><path class="cls-13" d="M727.44,289.85l-.75,1.89-7.28-1.49,4.48-11.33,2.33.48-3.72,9.44,4.94,1.01Z"/><path class="cls-13" d="M736.04,293.65l-2.34-.48,4.48-11.33,2.33.48-4.47,11.33Z"/><path class="cls-13" d="M742.35,295.21l9.91-9.11,2.67,1-2.41,11.9-2.37-.88.71-3.04-3.72-1.39-2.47,2.38-2.31-.86ZM752.47,288.64l-.13-.05-3.83,3.72,2.81,1.05,1.15-4.72Z"/><path class="cls-13" d="M768.13,304.83l-1.85-.69-.8-8.92-.11-.04-4.15,7.07-2.12-.79,6.18-10.5,1.88.7.78,8.87.11.04,4.14-7.04,2.12.79-6.17,10.5Z"/><path class="cls-13" d="M803.8,318.13l-2.24-.83,6.19-10.5,7.17,2.67-1,1.71-4.93-1.84-1.73,2.93,4.52,1.69-.98,1.66-4.52-1.69-2.48,4.2Z"/><path class="cls-13" d="M814.53,322.13l9.91-9.11,2.67,1-2.41,11.9-2.37-.88.71-3.04-3.72-1.39-2.47,2.38-2.31-.86ZM824.65,315.56l-.13-.05-3.83,3.72,2.81,1.05,1.15-4.72Z"/><path class="cls-13" d="M839.41,318.61l-3.71,6.31c-.04.07-.09.17-.16.3-.06.13-.12.25-.16.38-.23.62-.22,1.18.01,1.69.24.51.69.9,1.36,1.14.58.21,1.14.23,1.69.04s1.03-.63,1.44-1.33l4.04-6.86,2.26.84-4.27,7.28c-.45.76-.99,1.33-1.62,1.71s-1.32.59-2.06.62c-.74.03-1.51-.1-2.31-.4-.79-.29-1.46-.7-2.01-1.23-.55-.52-.92-1.13-1.1-1.82-.19-.69-.13-1.44.17-2.24.07-.18.14-.36.23-.53s.17-.32.24-.45l3.7-6.31,2.26.84Z"/><path class="cls-13" d="M855.52,335.29l-1.03,1.75-6.97-2.6,6.18-10.5,2.23.83-5.14,8.75,4.73,1.76Z"/><path class="cls-13" d="M864.67,340.69l-2.26-.76,4.88-8.92-3.21-1.08.97-1.77,8.68,2.93-.96,1.77-3.21-1.08-4.88,8.92Z"/><circle class="cls-12" cx="1066.86" cy="368.35" r="6.32"/><circle class="cls-12" cx="804.46" cy="271.28" r="6.32"/><circle class="cls-12" cx="617.84" cy="247.59" r="6.32"/><circle class="cls-12" cx="553.06" cy="260.07" r="6.32"/><circle class="cls-12" cx="427.4" cy="267.28" r="6.32"/><circle class="cls-12" cx="386.87" cy="271.36" r="6.32"/><circle class="cls-12" cx="316.96" cy="270.51" r="6.32"/><path class="cls-14" d="M306.74,19.17h-1.61l1.16-6.54h-.09l-1.9,1.08.23-1.43,1.98-1.11h1.63l-1.41,8Z"/><path class="cls-14" d="M312.74,11.02c.6,0,1.11.13,1.53.39s.73.62.95,1.1.33,1.04.33,1.71c0,.3-.01.6-.04.89s-.08.57-.14.83-.15.53-.26.79c-.25.81-.64,1.45-1.15,1.9s-1.15.68-1.93.68c-.51,0-.95-.09-1.34-.28s-.69-.43-.91-.74-.34-.63-.36-.99v-.2h1.45c0,.19.06.36.18.5s.26.25.45.32.38.11.59.11c.35,0,.65-.11.91-.33s.47-.53.63-.92.27-.86.34-1.39h-.08c-.13.25-.36.46-.68.64s-.69.28-1.1.28c-.44,0-.84-.1-1.19-.31s-.63-.49-.84-.86-.31-.78-.31-1.25c0-.54.13-1.02.38-1.46s.6-.78,1.05-1.04.96-.39,1.54-.39ZM312.62,15.2c.27,0,.51-.07.72-.2s.38-.32.5-.54.18-.48.18-.76-.05-.52-.16-.74-.26-.39-.46-.51-.42-.19-.68-.19-.5.07-.71.21-.37.33-.49.57-.18.5-.18.79c0,.26.05.49.16.69s.25.37.45.48.42.18.67.18Z"/><path class="cls-14" d="M319.95,11.02c.6,0,1.11.13,1.53.39s.73.62.95,1.1.33,1.04.33,1.71c0,.3-.01.6-.04.89s-.08.57-.14.83-.15.53-.26.79c-.25.81-.64,1.45-1.15,1.9s-1.15.68-1.93.68c-.51,0-.95-.09-1.34-.28s-.69-.43-.91-.74-.34-.63-.36-.99v-.2h1.45c0,.19.06.36.18.5s.26.25.45.32.38.11.59.11c.35,0,.65-.11.91-.33s.47-.53.63-.92.27-.86.34-1.39h-.08c-.13.25-.36.46-.68.64s-.69.28-1.1.28c-.44,0-.84-.1-1.19-.31s-.63-.49-.84-.86-.31-.78-.31-1.25c0-.54.13-1.02.38-1.46s.6-.78,1.05-1.04.96-.39,1.54-.39ZM319.83,15.2c.27,0,.51-.07.72-.2s.38-.32.5-.54.18-.48.18-.76-.05-.52-.16-.74-.26-.39-.46-.51-.42-.19-.68-.19-.5.07-.71.21-.37.33-.49.57-.18.5-.18.79c0,.26.05.49.16.69s.25.37.45.48.42.18.67.18Z"/><path class="cls-14" d="M327.16,11.02c.6,0,1.11.13,1.53.39s.73.62.95,1.1.33,1.04.33,1.71c0,.3-.01.6-.04.89s-.08.57-.14.83-.15.53-.26.79c-.25.81-.64,1.45-1.15,1.9s-1.15.68-1.93.68c-.51,0-.95-.09-1.34-.28s-.69-.43-.91-.74-.34-.63-.36-.99v-.2h1.45c0,.19.06.36.18.5s.26.25.45.32.38.11.59.11c.35,0,.65-.11.91-.33s.47-.53.63-.92.27-.86.34-1.39h-.08c-.13.25-.36.46-.68.64s-.69.28-1.1.28c-.44,0-.84-.1-1.19-.31s-.63-.49-.84-.86-.31-.78-.31-1.25c0-.54.13-1.02.38-1.46s.6-.78,1.05-1.04.96-.39,1.54-.39ZM327.04,15.2c.27,0,.51-.07.72-.2s.38-.32.5-.54.18-.48.18-.76-.05-.52-.16-.74-.26-.39-.46-.51-.42-.19-.68-.19-.5.07-.71.21-.37.33-.49.57-.18.5-.18.79c0,.26.05.49.16.69s.25.37.45.48.42.18.67.18Z"/><path class="cls-14" d="M375.7,19.17h-1.61l1.16-6.54h-.09l-1.9,1.08.23-1.43,1.98-1.11h1.63l-1.41,8Z"/><path class="cls-14" d="M381.7,11.02c.6,0,1.11.13,1.53.39s.73.62.95,1.1.33,1.04.33,1.71c0,.3-.01.6-.04.89s-.08.57-.14.83-.15.53-.26.79c-.25.81-.64,1.45-1.15,1.9s-1.15.68-1.93.68c-.51,0-.95-.09-1.34-.28s-.69-.43-.91-.74-.34-.63-.36-.99v-.2h1.45c0,.19.06.36.18.5s.26.25.45.32.38.11.59.11c.35,0,.65-.11.91-.33s.47-.53.63-.92.27-.86.34-1.39h-.08c-.13.25-.36.46-.68.64s-.69.28-1.1.28c-.44,0-.84-.1-1.19-.31s-.63-.49-.84-.86-.31-.78-.31-1.25c0-.54.13-1.02.38-1.46s.6-.78,1.05-1.04.96-.39,1.54-.39ZM381.57,15.2c.27,0,.51-.07.72-.2s.38-.32.5-.54.18-.48.18-.76-.05-.52-.16-.74-.26-.39-.46-.51-.42-.19-.68-.19-.5.07-.71.21-.37.33-.49.57-.18.5-.18.79c0,.26.05.49.16.69s.25.37.45.48.42.18.67.18Z"/><path class="cls-14" d="M388.63,19.33c-.61,0-1.12-.14-1.55-.42s-.76-.67-.98-1.17-.34-1.09-.34-1.75c0-.36.02-.71.07-1.05s.11-.66.2-.97.19-.58.31-.83c.32-.67.74-1.19,1.28-1.55s1.15-.54,1.86-.54c.46,0,.87.09,1.24.26s.67.42.89.72.34.64.35,1.02v.09s0,.05,0,.07h-1.44c-.02-.17-.08-.32-.18-.46s-.24-.25-.41-.33-.36-.12-.58-.12c-.36,0-.68.12-.96.35s-.5.54-.67.94-.28.84-.33,1.33h.1c.1-.17.24-.32.41-.46s.37-.25.61-.33.49-.12.76-.12c.45,0,.85.1,1.2.3s.64.48.84.84.31.77.31,1.24c0,.54-.12,1.03-.38,1.48s-.6.8-1.04,1.07-.97.4-1.56.4ZM388.75,15.09c-.27,0-.52.07-.73.2s-.38.32-.5.54-.18.48-.18.76.06.52.18.75.28.4.48.53.43.2.68.2c.28,0,.53-.07.74-.21s.38-.34.5-.58.18-.52.18-.82c0-.27-.06-.5-.17-.71s-.27-.37-.47-.48-.43-.18-.69-.18Z"/><path class="cls-14" d="M393.46,11.18h5.48l-.19,1.22-4.27,6.77h-1.76l4.29-6.64v-.09s-3.76,0-3.76,0l.21-1.27Z"/><path class="cls-14" d="M418.23,19.17h-1.61l1.16-6.54h-.09l-1.9,1.08.23-1.43,1.98-1.11h1.63l-1.41,8Z"/><path class="cls-14" d="M424.23,11.02c.6,0,1.11.13,1.53.39s.73.62.95,1.1.33,1.04.33,1.71c0,.3-.01.6-.04.89s-.08.57-.14.83-.15.53-.26.79c-.25.81-.64,1.45-1.15,1.9s-1.15.68-1.93.68c-.51,0-.95-.09-1.34-.28s-.69-.43-.91-.74-.34-.63-.36-.99v-.2h1.45c0,.19.06.36.18.5s.26.25.45.32.38.11.59.11c.35,0,.65-.11.91-.33s.47-.53.63-.92.27-.86.34-1.39h-.08c-.13.25-.36.46-.68.64s-.69.28-1.1.28c-.44,0-.84-.1-1.19-.31s-.63-.49-.84-.86-.31-.78-.31-1.25c0-.54.13-1.02.38-1.46s.6-.78,1.05-1.04.96-.39,1.54-.39ZM424.1,15.2c.27,0,.51-.07.72-.2s.38-.32.5-.54.18-.48.18-.76-.05-.52-.16-.74-.26-.39-.46-.51-.42-.19-.68-.19-.5.07-.71.21-.37.33-.49.57-.18.5-.18.79c0,.26.05.49.16.69s.25.37.45.48.42.18.67.18Z"/><path class="cls-14" d="M428.19,16.89h1.44s0,.04,0,.06,0,.04,0,.07c0,.17.05.33.15.5s.24.3.43.4.42.16.69.16c.3,0,.57-.07.81-.21s.43-.34.57-.59.21-.54.21-.87c0-.29-.05-.54-.16-.74s-.25-.35-.44-.46-.4-.16-.64-.16c-.22,0-.44.04-.67.13s-.4.22-.54.4h-1.46l1.06-4.4h4.66l-.21,1.27h-3.39l-.53,2.09h.09c.16-.2.39-.35.68-.45s.58-.16.89-.16c.43,0,.8.1,1.13.29s.59.47.78.83.28.78.28,1.26c0,.58-.13,1.1-.39,1.56s-.63.82-1.1,1.08-1.04.39-1.68.39c-.58,0-1.07-.1-1.46-.3s-.7-.46-.9-.78-.31-.65-.31-.99c0-.12.01-.24.04-.38Z"/><path class="cls-14" d="M435.86,11.18h5.48l-.19,1.22-4.27,6.77h-1.76l4.29-6.64v-.09s-3.76,0-3.76,0l.21-1.27Z"/><path class="cls-14" d="M541.45,19.17h-1.61l1.16-6.54h-.09l-1.9,1.08.23-1.43,1.98-1.11h1.63l-1.41,8Z"/><path class="cls-14" d="M547.45,11.02c.6,0,1.11.13,1.53.39s.73.62.95,1.1.33,1.04.33,1.71c0,.3-.01.6-.04.89s-.08.57-.14.83-.15.53-.26.79c-.25.81-.64,1.45-1.15,1.9s-1.15.68-1.93.68c-.51,0-.95-.09-1.34-.28s-.69-.43-.91-.74-.34-.63-.36-.99v-.2h1.45c0,.19.06.36.18.5s.26.25.45.32.38.11.59.11c.35,0,.65-.11.91-.33s.47-.53.63-.92.27-.86.34-1.39h-.08c-.13.25-.36.46-.68.64s-.69.28-1.1.28c-.44,0-.84-.1-1.19-.31s-.63-.49-.84-.86-.31-.78-.31-1.25c0-.54.13-1.02.38-1.46s.6-.78,1.05-1.04.96-.39,1.54-.39ZM547.32,15.2c.27,0,.51-.07.72-.2s.38-.32.5-.54.18-.48.18-.76-.05-.52-.16-.74-.26-.39-.46-.51-.42-.19-.68-.19-.5.07-.71.21-.37.33-.49.57-.18.5-.18.79c0,.26.05.49.16.69s.25.37.45.48.42.18.67.18Z"/><path class="cls-14" d="M555.19,11.18h2.29l-.91,5.25h1.17l-.21,1.24h-1.17l-.26,1.51h-1.48l.26-1.51h-3.8l.21-1.28c.57-.86,1.2-1.73,1.89-2.62s1.36-1.76,2.03-2.6ZM552.75,16.43h2.34l.73-4.01h-.09c-.32.41-.65.84-1,1.28s-.69.89-1.02,1.34-.65.89-.95,1.32v.04s0,.03,0,.03Z"/><path class="cls-14" d="M562.71,11.18h2.29l-.91,5.25h1.17l-.21,1.24h-1.17l-.26,1.51h-1.48l.26-1.51h-3.8l.21-1.28c.57-.86,1.2-1.73,1.89-2.62s1.36-1.76,2.03-2.6ZM560.28,16.43h2.34l.73-4.01h-.09c-.32.41-.65.84-1,1.28s-.69.89-1.02,1.34-.65.89-.95,1.32v.04s0,.03,0,.03Z"/><path class="cls-14" d="M607.01,19.17h-1.61l1.16-6.54h-.09l-1.9,1.08.23-1.43,1.98-1.11h1.63l-1.41,8Z"/><path class="cls-14" d="M613.01,11.02c.6,0,1.11.13,1.53.39s.73.62.95,1.1.33,1.04.33,1.71c0,.3-.01.6-.04.89s-.08.57-.14.83-.15.53-.26.79c-.25.81-.64,1.45-1.15,1.9s-1.15.68-1.93.68c-.51,0-.95-.09-1.34-.28s-.69-.43-.91-.74-.34-.63-.36-.99v-.2h1.45c0,.19.06.36.18.5s.26.25.45.32.38.11.59.11c.35,0,.65-.11.91-.33s.47-.53.63-.92.27-.86.34-1.39h-.08c-.13.25-.36.46-.68.64s-.69.28-1.1.28c-.44,0-.84-.1-1.19-.31s-.63-.49-.84-.86-.31-.78-.31-1.25c0-.54.13-1.02.38-1.46s.6-.78,1.05-1.04.96-.39,1.54-.39ZM612.89,15.2c.27,0,.51-.07.72-.2s.38-.32.5-.54.18-.48.18-.76-.05-.52-.16-.74-.26-.39-.46-.51-.42-.19-.68-.19-.5.07-.71.21-.37.33-.49.57-.18.5-.18.79c0,.26.05.49.16.69s.25.37.45.48.42.18.67.18Z"/><path class="cls-14" d="M620.76,11.18h2.29l-.91,5.25h1.17l-.21,1.24h-1.17l-.26,1.51h-1.48l.26-1.51h-3.8l.21-1.28c.57-.86,1.2-1.73,1.89-2.62s1.36-1.76,2.03-2.6ZM618.32,16.43h2.34l.73-4.01h-.09c-.32.41-.65.84-1,1.28s-.69.89-1.02,1.34-.65.89-.95,1.32v.04s0,.03,0,.03Z"/><path class="cls-14" d="M626.52,15.58l.2-1.15c.13,0,.25,0,.35,0s.19,0,.25,0c.28,0,.54-.04.77-.12s.42-.21.56-.38.21-.39.21-.65c0-.34-.11-.6-.34-.78s-.51-.28-.84-.28c-.22,0-.41.04-.57.11s-.29.17-.38.3-.16.26-.19.41h-1.51c.05-.39.19-.74.42-1.05s.54-.55.93-.72.85-.26,1.37-.26c.48,0,.92.08,1.32.23s.71.38.96.68.36.67.36,1.11c0,.39-.08.73-.25,1s-.39.5-.66.65-.56.25-.87.28l-.02.08c.31.06.58.18.8.35s.39.38.51.63.18.54.18.87c0,.47-.13.88-.39,1.24s-.61.64-1.07.84-.97.3-1.56.3-1.1-.1-1.52-.3-.75-.46-.98-.79-.34-.69-.34-1.09c0-.07,0-.13,0-.17s.01-.08.01-.11h1.51s0,.05,0,.07v.06c0,.18.05.34.16.51s.26.29.46.4.44.15.71.15c.26,0,.5-.05.7-.15s.37-.24.49-.42.18-.39.18-.64c0-.26-.06-.48-.18-.66s-.29-.32-.5-.42-.45-.15-.72-.16h-.52Z"/><path class="cls-14" d="M792.7,19.17h-1.61l1.16-6.54h-.09l-1.9,1.08.23-1.43,1.98-1.11h1.63l-1.41,8Z"/><path class="cls-14" d="M798.7,11.02c.6,0,1.11.13,1.53.39s.73.62.95,1.1.33,1.04.33,1.71c0,.3-.01.6-.04.89s-.08.57-.14.83-.15.53-.26.79c-.25.81-.64,1.45-1.15,1.9s-1.15.68-1.93.68c-.51,0-.95-.09-1.34-.28s-.69-.43-.91-.74-.34-.63-.36-.99v-.2h1.45c0,.19.06.36.18.5s.26.25.45.32.38.11.59.11c.35,0,.65-.11.91-.33s.47-.53.63-.92.27-.86.34-1.39h-.08c-.13.25-.36.46-.68.64s-.69.28-1.1.28c-.44,0-.84-.1-1.19-.31s-.63-.49-.84-.86-.31-.78-.31-1.25c0-.54.13-1.02.38-1.46s.6-.78,1.05-1.04.96-.39,1.54-.39ZM798.58,15.2c.27,0,.51-.07.72-.2s.38-.32.5-.54.18-.48.18-.76-.05-.52-.16-.74-.26-.39-.46-.51-.42-.19-.68-.19-.5.07-.71.21-.37.33-.49.57-.18.5-.18.79c0,.26.05.49.16.69s.25.37.45.48.42.18.67.18Z"/><path class="cls-14" d="M806.45,11.18h2.29l-.91,5.25h1.17l-.21,1.24h-1.17l-.26,1.51h-1.48l.26-1.51h-3.8l.21-1.28c.57-.86,1.2-1.73,1.89-2.62s1.36-1.76,2.03-2.6ZM804.01,16.43h2.34l.73-4.01h-.09c-.32.41-.65.84-1,1.28s-.69.89-1.02,1.34-.65.89-.95,1.32v.04s0,.03,0,.03Z"/><path class="cls-14" d="M812.12,13.41h-1.45s0-.05,0-.08,0-.05,0-.07c.02-.43.15-.81.38-1.15s.56-.6.96-.8.88-.29,1.42-.29c.34,0,.67.05.98.14s.59.23.83.41.43.41.57.68.21.58.21.94c0,.38-.08.73-.23,1.05s-.36.61-.61.88-.54.54-.84.8l-2.17,1.9-.02.09h3.42l-.23,1.27h-5.5l.2-1.15,3.26-2.92c.19-.17.38-.35.56-.54s.33-.39.45-.59.18-.42.18-.65c0-.18-.04-.34-.12-.5s-.21-.29-.37-.39-.37-.15-.62-.15-.45.05-.63.15-.32.23-.43.39-.17.34-.19.54v.06Z"/><path class="cls-14" d="M1055.23,19.17h-1.61l1.16-6.54h-.09l-1.9,1.08.23-1.43,1.98-1.11h1.63l-1.41,8Z"/><path class="cls-14" d="M1061.23,11.02c.6,0,1.11.13,1.53.39s.73.62.95,1.1.33,1.04.33,1.71c0,.3-.01.6-.04.89s-.08.57-.14.83-.15.53-.26.79c-.25.81-.64,1.45-1.15,1.9s-1.15.68-1.93.68c-.51,0-.95-.09-1.34-.28s-.69-.43-.91-.74-.34-.63-.36-.99v-.2h1.45c0,.19.06.36.18.5s.26.25.45.32.38.11.59.11c.35,0,.65-.11.91-.33s.47-.53.63-.92.27-.86.34-1.39h-.08c-.13.25-.36.46-.68.64s-.69.28-1.1.28c-.44,0-.84-.1-1.19-.31s-.63-.49-.84-.86-.31-.78-.31-1.25c0-.54.13-1.02.38-1.46s.6-.78,1.05-1.04.96-.39,1.54-.39ZM1061.1,15.2c.27,0,.51-.07.72-.2s.38-.32.5-.54.18-.48.18-.76-.05-.52-.16-.74-.26-.39-.46-.51-.42-.19-.68-.19-.5.07-.71.21-.37.33-.49.57-.18.5-.18.79c0,.26.05.49.16.69s.25.37.45.48.42.18.67.18Z"/><path class="cls-14" d="M1067.16,15.58l.2-1.15c.13,0,.25,0,.35,0s.19,0,.25,0c.28,0,.54-.04.77-.12s.42-.21.56-.38.21-.39.21-.65c0-.34-.11-.6-.34-.78s-.51-.28-.84-.28c-.22,0-.41.04-.57.11s-.29.17-.38.3-.16.26-.19.41h-1.51c.05-.39.19-.74.42-1.05s.54-.55.93-.72.85-.26,1.37-.26c.48,0,.92.08,1.32.23s.71.38.96.68.36.67.36,1.11c0,.39-.08.73-.25,1s-.39.5-.66.65-.56.25-.87.28l-.02.08c.31.06.58.18.8.35s.39.38.51.63.18.54.18.87c0,.47-.13.88-.39,1.24s-.61.64-1.07.84-.97.3-1.56.3-1.1-.1-1.52-.3-.75-.46-.98-.79-.34-.69-.34-1.09c0-.07,0-.13,0-.17s.01-.08.01-.11h1.51s0,.05,0,.07v.06c0,.18.05.34.16.51s.26.29.46.4.44.15.71.15c.26,0,.5-.05.7-.15s.37-.24.49-.42.18-.39.18-.64c0-.26-.06-.48-.18-.66s-.29-.32-.5-.42-.45-.15-.72-.16h-.52Z"/><path class="cls-14" d="M1075.42,11.02c.6,0,1.11.13,1.53.39s.73.62.95,1.1.33,1.04.33,1.71c0,.3-.01.6-.04.89s-.08.57-.14.83-.15.53-.26.79c-.25.81-.64,1.45-1.15,1.9s-1.15.68-1.93.68c-.51,0-.95-.09-1.34-.28s-.69-.43-.91-.74-.34-.63-.36-.99v-.2h1.45c0,.19.06.36.18.5s.26.25.45.32.38.11.59.11c.35,0,.65-.11.91-.33s.47-.53.63-.92.27-.86.34-1.39h-.08c-.13.25-.36.46-.68.64s-.69.28-1.1.28c-.44,0-.84-.1-1.19-.31s-.63-.49-.84-.86-.31-.78-.31-1.25c0-.54.13-1.02.38-1.46s.6-.78,1.05-1.04.96-.39,1.54-.39ZM1075.3,15.2c.27,0,.51-.07.72-.2s.38-.32.5-.54.18-.48.18-.76-.05-.52-.16-.74-.26-.39-.46-.51-.42-.19-.68-.19-.5.07-.71.21-.37.33-.49.57-.18.5-.18.79c0,.26.05.49.16.69s.25.37.45.48.42.18.67.18Z"/></g></svg>